<mxfile host="app.diagrams.net" agent="Mozilla/5.0 (Windows NT 10.0; Win64; x64) AppleWebKit/537.36 (KHTML, like Gecko) Chrome/140.0.0.0 Safari/537.36" version="28.2.5">
  <diagram name="Page-1" id="SuEi4lIxHFCXn13PlDCr">
    <mxGraphModel dx="2303" dy="1990" grid="1" gridSize="10" guides="1" tooltips="1" connect="1" arrows="1" fold="1" page="1" pageScale="1" pageWidth="850" pageHeight="1100" math="0" shadow="0">
      <root>
        <mxCell id="0" />
        <mxCell id="1" parent="0" />
        <mxCell id="qfV262I-aldNIOLawlQ2-9" value="LocalDrivingLicenseApplications" style="shape=table;startSize=30;container=1;collapsible=0;childLayout=tableLayout;fixedRows=1;rowLines=0;fontStyle=0;strokeColor=default;fontSize=16;" parent="1" vertex="1">
          <mxGeometry x="-450" y="1300" width="310" height="120" as="geometry" />
        </mxCell>
        <mxCell id="qfV262I-aldNIOLawlQ2-10" value="" style="shape=tableRow;horizontal=0;startSize=0;swimlaneHead=0;swimlaneBody=0;top=0;left=0;bottom=0;right=0;collapsible=0;dropTarget=0;fillColor=none;points=[[0,0.5],[1,0.5]];portConstraint=eastwest;strokeColor=inherit;fontSize=16;" parent="qfV262I-aldNIOLawlQ2-9" vertex="1">
          <mxGeometry y="30" width="310" height="30" as="geometry" />
        </mxCell>
        <mxCell id="qfV262I-aldNIOLawlQ2-11" value="PK" style="shape=partialRectangle;html=1;whiteSpace=wrap;connectable=0;fillColor=none;top=0;left=0;bottom=0;right=0;overflow=hidden;pointerEvents=1;strokeColor=inherit;fontSize=16;" parent="qfV262I-aldNIOLawlQ2-10" vertex="1">
          <mxGeometry width="44" height="30" as="geometry">
            <mxRectangle width="44" height="30" as="alternateBounds" />
          </mxGeometry>
        </mxCell>
        <mxCell id="qfV262I-aldNIOLawlQ2-12" value="&lt;span style=&quot;text-align: center; text-wrap-mode: nowrap;&quot;&gt;LocalDrivingLicenseApplicationsID&lt;/span&gt;" style="shape=partialRectangle;html=1;whiteSpace=wrap;connectable=0;fillColor=none;top=0;left=0;bottom=0;right=0;align=left;spacingLeft=6;overflow=hidden;strokeColor=inherit;fontSize=16;" parent="qfV262I-aldNIOLawlQ2-10" vertex="1">
          <mxGeometry x="44" width="266" height="30" as="geometry">
            <mxRectangle width="266" height="30" as="alternateBounds" />
          </mxGeometry>
        </mxCell>
        <mxCell id="qfV262I-aldNIOLawlQ2-13" value="" style="shape=tableRow;horizontal=0;startSize=0;swimlaneHead=0;swimlaneBody=0;top=0;left=0;bottom=0;right=0;collapsible=0;dropTarget=0;fillColor=none;points=[[0,0.5],[1,0.5]];portConstraint=eastwest;strokeColor=inherit;fontSize=16;" parent="qfV262I-aldNIOLawlQ2-9" vertex="1">
          <mxGeometry y="60" width="310" height="30" as="geometry" />
        </mxCell>
        <mxCell id="qfV262I-aldNIOLawlQ2-14" value="FK" style="shape=partialRectangle;html=1;whiteSpace=wrap;connectable=0;fillColor=none;top=0;left=0;bottom=0;right=0;overflow=hidden;strokeColor=inherit;fontSize=16;" parent="qfV262I-aldNIOLawlQ2-13" vertex="1">
          <mxGeometry width="44" height="30" as="geometry">
            <mxRectangle width="44" height="30" as="alternateBounds" />
          </mxGeometry>
        </mxCell>
        <mxCell id="qfV262I-aldNIOLawlQ2-15" value="ApplicationID" style="shape=partialRectangle;html=1;whiteSpace=wrap;connectable=0;fillColor=none;top=0;left=0;bottom=0;right=0;align=left;spacingLeft=6;overflow=hidden;strokeColor=inherit;fontSize=16;" parent="qfV262I-aldNIOLawlQ2-13" vertex="1">
          <mxGeometry x="44" width="266" height="30" as="geometry">
            <mxRectangle width="266" height="30" as="alternateBounds" />
          </mxGeometry>
        </mxCell>
        <mxCell id="qfV262I-aldNIOLawlQ2-16" value="" style="shape=tableRow;horizontal=0;startSize=0;swimlaneHead=0;swimlaneBody=0;top=0;left=0;bottom=0;right=0;collapsible=0;dropTarget=0;fillColor=none;points=[[0,0.5],[1,0.5]];portConstraint=eastwest;strokeColor=inherit;fontSize=16;" parent="qfV262I-aldNIOLawlQ2-9" vertex="1">
          <mxGeometry y="90" width="310" height="30" as="geometry" />
        </mxCell>
        <mxCell id="qfV262I-aldNIOLawlQ2-17" value="FK" style="shape=partialRectangle;html=1;whiteSpace=wrap;connectable=0;fillColor=none;top=0;left=0;bottom=0;right=0;overflow=hidden;strokeColor=inherit;fontSize=16;" parent="qfV262I-aldNIOLawlQ2-16" vertex="1">
          <mxGeometry width="44" height="30" as="geometry">
            <mxRectangle width="44" height="30" as="alternateBounds" />
          </mxGeometry>
        </mxCell>
        <mxCell id="qfV262I-aldNIOLawlQ2-18" value="LicenseClassID" style="shape=partialRectangle;html=1;whiteSpace=wrap;connectable=0;fillColor=none;top=0;left=0;bottom=0;right=0;align=left;spacingLeft=6;overflow=hidden;strokeColor=inherit;fontSize=16;" parent="qfV262I-aldNIOLawlQ2-16" vertex="1">
          <mxGeometry x="44" width="266" height="30" as="geometry">
            <mxRectangle width="266" height="30" as="alternateBounds" />
          </mxGeometry>
        </mxCell>
        <mxCell id="qfV262I-aldNIOLawlQ2-32" value="People" style="shape=table;startSize=30;container=1;collapsible=0;childLayout=tableLayout;fixedRows=1;rowLines=0;fontStyle=0;strokeColor=default;fontSize=16;" parent="1" vertex="1">
          <mxGeometry x="260" y="-50" width="210" height="420" as="geometry" />
        </mxCell>
        <mxCell id="qfV262I-aldNIOLawlQ2-33" value="" style="shape=tableRow;horizontal=0;startSize=0;swimlaneHead=0;swimlaneBody=0;top=0;left=0;bottom=0;right=0;collapsible=0;dropTarget=0;fillColor=none;points=[[0,0.5],[1,0.5]];portConstraint=eastwest;strokeColor=inherit;fontSize=16;" parent="qfV262I-aldNIOLawlQ2-32" vertex="1">
          <mxGeometry y="30" width="210" height="30" as="geometry" />
        </mxCell>
        <mxCell id="qfV262I-aldNIOLawlQ2-34" value="PK" style="shape=partialRectangle;html=1;whiteSpace=wrap;connectable=0;fillColor=none;top=0;left=0;bottom=0;right=0;overflow=hidden;pointerEvents=1;strokeColor=inherit;fontSize=16;" parent="qfV262I-aldNIOLawlQ2-33" vertex="1">
          <mxGeometry width="42" height="30" as="geometry">
            <mxRectangle width="42" height="30" as="alternateBounds" />
          </mxGeometry>
        </mxCell>
        <mxCell id="qfV262I-aldNIOLawlQ2-35" value="PersonID" style="shape=partialRectangle;html=1;whiteSpace=wrap;connectable=0;fillColor=none;top=0;left=0;bottom=0;right=0;align=left;spacingLeft=6;overflow=hidden;strokeColor=inherit;fontSize=16;" parent="qfV262I-aldNIOLawlQ2-33" vertex="1">
          <mxGeometry x="42" width="168" height="30" as="geometry">
            <mxRectangle width="168" height="30" as="alternateBounds" />
          </mxGeometry>
        </mxCell>
        <mxCell id="qfV262I-aldNIOLawlQ2-241" value="" style="shape=tableRow;horizontal=0;startSize=0;swimlaneHead=0;swimlaneBody=0;top=0;left=0;bottom=0;right=0;collapsible=0;dropTarget=0;fillColor=none;points=[[0,0.5],[1,0.5]];portConstraint=eastwest;strokeColor=inherit;fontSize=16;" parent="qfV262I-aldNIOLawlQ2-32" vertex="1">
          <mxGeometry y="60" width="210" height="30" as="geometry" />
        </mxCell>
        <mxCell id="qfV262I-aldNIOLawlQ2-242" value="" style="shape=partialRectangle;html=1;whiteSpace=wrap;connectable=0;fillColor=none;top=0;left=0;bottom=0;right=0;overflow=hidden;pointerEvents=1;strokeColor=inherit;fontSize=16;" parent="qfV262I-aldNIOLawlQ2-241" vertex="1">
          <mxGeometry width="42" height="30" as="geometry">
            <mxRectangle width="42" height="30" as="alternateBounds" />
          </mxGeometry>
        </mxCell>
        <mxCell id="qfV262I-aldNIOLawlQ2-243" value="NationalNo" style="shape=partialRectangle;html=1;whiteSpace=wrap;connectable=0;fillColor=none;top=0;left=0;bottom=0;right=0;align=left;spacingLeft=6;overflow=hidden;strokeColor=inherit;fontSize=16;" parent="qfV262I-aldNIOLawlQ2-241" vertex="1">
          <mxGeometry x="42" width="168" height="30" as="geometry">
            <mxRectangle width="168" height="30" as="alternateBounds" />
          </mxGeometry>
        </mxCell>
        <mxCell id="qfV262I-aldNIOLawlQ2-36" value="" style="shape=tableRow;horizontal=0;startSize=0;swimlaneHead=0;swimlaneBody=0;top=0;left=0;bottom=0;right=0;collapsible=0;dropTarget=0;fillColor=none;points=[[0,0.5],[1,0.5]];portConstraint=eastwest;strokeColor=inherit;fontSize=16;" parent="qfV262I-aldNIOLawlQ2-32" vertex="1">
          <mxGeometry y="90" width="210" height="30" as="geometry" />
        </mxCell>
        <mxCell id="qfV262I-aldNIOLawlQ2-37" value="" style="shape=partialRectangle;html=1;whiteSpace=wrap;connectable=0;fillColor=none;top=0;left=0;bottom=0;right=0;overflow=hidden;strokeColor=inherit;fontSize=16;" parent="qfV262I-aldNIOLawlQ2-36" vertex="1">
          <mxGeometry width="42" height="30" as="geometry">
            <mxRectangle width="42" height="30" as="alternateBounds" />
          </mxGeometry>
        </mxCell>
        <mxCell id="qfV262I-aldNIOLawlQ2-38" value="FirstName" style="shape=partialRectangle;html=1;whiteSpace=wrap;connectable=0;fillColor=none;top=0;left=0;bottom=0;right=0;align=left;spacingLeft=6;overflow=hidden;strokeColor=inherit;fontSize=16;" parent="qfV262I-aldNIOLawlQ2-36" vertex="1">
          <mxGeometry x="42" width="168" height="30" as="geometry">
            <mxRectangle width="168" height="30" as="alternateBounds" />
          </mxGeometry>
        </mxCell>
        <mxCell id="qfV262I-aldNIOLawlQ2-244" value="" style="shape=tableRow;horizontal=0;startSize=0;swimlaneHead=0;swimlaneBody=0;top=0;left=0;bottom=0;right=0;collapsible=0;dropTarget=0;fillColor=none;points=[[0,0.5],[1,0.5]];portConstraint=eastwest;strokeColor=inherit;fontSize=16;" parent="qfV262I-aldNIOLawlQ2-32" vertex="1">
          <mxGeometry y="120" width="210" height="30" as="geometry" />
        </mxCell>
        <mxCell id="qfV262I-aldNIOLawlQ2-245" value="" style="shape=partialRectangle;html=1;whiteSpace=wrap;connectable=0;fillColor=none;top=0;left=0;bottom=0;right=0;overflow=hidden;strokeColor=inherit;fontSize=16;" parent="qfV262I-aldNIOLawlQ2-244" vertex="1">
          <mxGeometry width="42" height="30" as="geometry">
            <mxRectangle width="42" height="30" as="alternateBounds" />
          </mxGeometry>
        </mxCell>
        <mxCell id="qfV262I-aldNIOLawlQ2-246" value="SecondName" style="shape=partialRectangle;html=1;whiteSpace=wrap;connectable=0;fillColor=none;top=0;left=0;bottom=0;right=0;align=left;spacingLeft=6;overflow=hidden;strokeColor=inherit;fontSize=16;" parent="qfV262I-aldNIOLawlQ2-244" vertex="1">
          <mxGeometry x="42" width="168" height="30" as="geometry">
            <mxRectangle width="168" height="30" as="alternateBounds" />
          </mxGeometry>
        </mxCell>
        <mxCell id="qfV262I-aldNIOLawlQ2-247" value="" style="shape=tableRow;horizontal=0;startSize=0;swimlaneHead=0;swimlaneBody=0;top=0;left=0;bottom=0;right=0;collapsible=0;dropTarget=0;fillColor=none;points=[[0,0.5],[1,0.5]];portConstraint=eastwest;strokeColor=inherit;fontSize=16;" parent="qfV262I-aldNIOLawlQ2-32" vertex="1">
          <mxGeometry y="150" width="210" height="30" as="geometry" />
        </mxCell>
        <mxCell id="qfV262I-aldNIOLawlQ2-248" value="" style="shape=partialRectangle;html=1;whiteSpace=wrap;connectable=0;fillColor=none;top=0;left=0;bottom=0;right=0;overflow=hidden;strokeColor=inherit;fontSize=16;" parent="qfV262I-aldNIOLawlQ2-247" vertex="1">
          <mxGeometry width="42" height="30" as="geometry">
            <mxRectangle width="42" height="30" as="alternateBounds" />
          </mxGeometry>
        </mxCell>
        <mxCell id="qfV262I-aldNIOLawlQ2-249" value="ThirdName" style="shape=partialRectangle;html=1;whiteSpace=wrap;connectable=0;fillColor=none;top=0;left=0;bottom=0;right=0;align=left;spacingLeft=6;overflow=hidden;strokeColor=inherit;fontSize=16;" parent="qfV262I-aldNIOLawlQ2-247" vertex="1">
          <mxGeometry x="42" width="168" height="30" as="geometry">
            <mxRectangle width="168" height="30" as="alternateBounds" />
          </mxGeometry>
        </mxCell>
        <mxCell id="qfV262I-aldNIOLawlQ2-250" value="" style="shape=tableRow;horizontal=0;startSize=0;swimlaneHead=0;swimlaneBody=0;top=0;left=0;bottom=0;right=0;collapsible=0;dropTarget=0;fillColor=none;points=[[0,0.5],[1,0.5]];portConstraint=eastwest;strokeColor=inherit;fontSize=16;" parent="qfV262I-aldNIOLawlQ2-32" vertex="1">
          <mxGeometry y="180" width="210" height="30" as="geometry" />
        </mxCell>
        <mxCell id="qfV262I-aldNIOLawlQ2-251" value="" style="shape=partialRectangle;html=1;whiteSpace=wrap;connectable=0;fillColor=none;top=0;left=0;bottom=0;right=0;overflow=hidden;strokeColor=inherit;fontSize=16;" parent="qfV262I-aldNIOLawlQ2-250" vertex="1">
          <mxGeometry width="42" height="30" as="geometry">
            <mxRectangle width="42" height="30" as="alternateBounds" />
          </mxGeometry>
        </mxCell>
        <mxCell id="qfV262I-aldNIOLawlQ2-252" value="LastName" style="shape=partialRectangle;html=1;whiteSpace=wrap;connectable=0;fillColor=none;top=0;left=0;bottom=0;right=0;align=left;spacingLeft=6;overflow=hidden;strokeColor=inherit;fontSize=16;" parent="qfV262I-aldNIOLawlQ2-250" vertex="1">
          <mxGeometry x="42" width="168" height="30" as="geometry">
            <mxRectangle width="168" height="30" as="alternateBounds" />
          </mxGeometry>
        </mxCell>
        <mxCell id="qfV262I-aldNIOLawlQ2-39" value="" style="shape=tableRow;horizontal=0;startSize=0;swimlaneHead=0;swimlaneBody=0;top=0;left=0;bottom=0;right=0;collapsible=0;dropTarget=0;fillColor=none;points=[[0,0.5],[1,0.5]];portConstraint=eastwest;strokeColor=inherit;fontSize=16;" parent="qfV262I-aldNIOLawlQ2-32" vertex="1">
          <mxGeometry y="210" width="210" height="30" as="geometry" />
        </mxCell>
        <mxCell id="qfV262I-aldNIOLawlQ2-40" value="" style="shape=partialRectangle;html=1;whiteSpace=wrap;connectable=0;fillColor=none;top=0;left=0;bottom=0;right=0;overflow=hidden;strokeColor=inherit;fontSize=16;" parent="qfV262I-aldNIOLawlQ2-39" vertex="1">
          <mxGeometry width="42" height="30" as="geometry">
            <mxRectangle width="42" height="30" as="alternateBounds" />
          </mxGeometry>
        </mxCell>
        <mxCell id="qfV262I-aldNIOLawlQ2-41" value="DateOfBirth" style="shape=partialRectangle;html=1;whiteSpace=wrap;connectable=0;fillColor=none;top=0;left=0;bottom=0;right=0;align=left;spacingLeft=6;overflow=hidden;strokeColor=inherit;fontSize=16;" parent="qfV262I-aldNIOLawlQ2-39" vertex="1">
          <mxGeometry x="42" width="168" height="30" as="geometry">
            <mxRectangle width="168" height="30" as="alternateBounds" />
          </mxGeometry>
        </mxCell>
        <mxCell id="qfV262I-aldNIOLawlQ2-42" value="" style="shape=tableRow;horizontal=0;startSize=0;swimlaneHead=0;swimlaneBody=0;top=0;left=0;bottom=0;right=0;collapsible=0;dropTarget=0;fillColor=none;points=[[0,0.5],[1,0.5]];portConstraint=eastwest;strokeColor=inherit;fontSize=16;" parent="qfV262I-aldNIOLawlQ2-32" vertex="1">
          <mxGeometry y="240" width="210" height="30" as="geometry" />
        </mxCell>
        <mxCell id="qfV262I-aldNIOLawlQ2-43" value="" style="shape=partialRectangle;html=1;whiteSpace=wrap;connectable=0;fillColor=none;top=0;left=0;bottom=0;right=0;overflow=hidden;strokeColor=inherit;fontSize=16;" parent="qfV262I-aldNIOLawlQ2-42" vertex="1">
          <mxGeometry width="42" height="30" as="geometry">
            <mxRectangle width="42" height="30" as="alternateBounds" />
          </mxGeometry>
        </mxCell>
        <mxCell id="qfV262I-aldNIOLawlQ2-44" value="Address" style="shape=partialRectangle;html=1;whiteSpace=wrap;connectable=0;fillColor=none;top=0;left=0;bottom=0;right=0;align=left;spacingLeft=6;overflow=hidden;strokeColor=inherit;fontSize=16;" parent="qfV262I-aldNIOLawlQ2-42" vertex="1">
          <mxGeometry x="42" width="168" height="30" as="geometry">
            <mxRectangle width="168" height="30" as="alternateBounds" />
          </mxGeometry>
        </mxCell>
        <mxCell id="qfV262I-aldNIOLawlQ2-253" value="" style="shape=tableRow;horizontal=0;startSize=0;swimlaneHead=0;swimlaneBody=0;top=0;left=0;bottom=0;right=0;collapsible=0;dropTarget=0;fillColor=none;points=[[0,0.5],[1,0.5]];portConstraint=eastwest;strokeColor=inherit;fontSize=16;" parent="qfV262I-aldNIOLawlQ2-32" vertex="1">
          <mxGeometry y="270" width="210" height="30" as="geometry" />
        </mxCell>
        <mxCell id="qfV262I-aldNIOLawlQ2-254" value="" style="shape=partialRectangle;html=1;whiteSpace=wrap;connectable=0;fillColor=none;top=0;left=0;bottom=0;right=0;overflow=hidden;strokeColor=inherit;fontSize=16;" parent="qfV262I-aldNIOLawlQ2-253" vertex="1">
          <mxGeometry width="42" height="30" as="geometry">
            <mxRectangle width="42" height="30" as="alternateBounds" />
          </mxGeometry>
        </mxCell>
        <mxCell id="qfV262I-aldNIOLawlQ2-255" value="Gender" style="shape=partialRectangle;html=1;whiteSpace=wrap;connectable=0;fillColor=none;top=0;left=0;bottom=0;right=0;align=left;spacingLeft=6;overflow=hidden;strokeColor=inherit;fontSize=16;" parent="qfV262I-aldNIOLawlQ2-253" vertex="1">
          <mxGeometry x="42" width="168" height="30" as="geometry">
            <mxRectangle width="168" height="30" as="alternateBounds" />
          </mxGeometry>
        </mxCell>
        <mxCell id="qfV262I-aldNIOLawlQ2-45" value="" style="shape=tableRow;horizontal=0;startSize=0;swimlaneHead=0;swimlaneBody=0;top=0;left=0;bottom=0;right=0;collapsible=0;dropTarget=0;fillColor=none;points=[[0,0.5],[1,0.5]];portConstraint=eastwest;strokeColor=inherit;fontSize=16;" parent="qfV262I-aldNIOLawlQ2-32" vertex="1">
          <mxGeometry y="300" width="210" height="30" as="geometry" />
        </mxCell>
        <mxCell id="qfV262I-aldNIOLawlQ2-46" value="" style="shape=partialRectangle;html=1;whiteSpace=wrap;connectable=0;fillColor=none;top=0;left=0;bottom=0;right=0;overflow=hidden;strokeColor=inherit;fontSize=16;" parent="qfV262I-aldNIOLawlQ2-45" vertex="1">
          <mxGeometry width="42" height="30" as="geometry">
            <mxRectangle width="42" height="30" as="alternateBounds" />
          </mxGeometry>
        </mxCell>
        <mxCell id="qfV262I-aldNIOLawlQ2-47" value="Phone" style="shape=partialRectangle;html=1;whiteSpace=wrap;connectable=0;fillColor=none;top=0;left=0;bottom=0;right=0;align=left;spacingLeft=6;overflow=hidden;strokeColor=inherit;fontSize=16;" parent="qfV262I-aldNIOLawlQ2-45" vertex="1">
          <mxGeometry x="42" width="168" height="30" as="geometry">
            <mxRectangle width="168" height="30" as="alternateBounds" />
          </mxGeometry>
        </mxCell>
        <mxCell id="qfV262I-aldNIOLawlQ2-48" value="" style="shape=tableRow;horizontal=0;startSize=0;swimlaneHead=0;swimlaneBody=0;top=0;left=0;bottom=0;right=0;collapsible=0;dropTarget=0;fillColor=none;points=[[0,0.5],[1,0.5]];portConstraint=eastwest;strokeColor=inherit;fontSize=16;" parent="qfV262I-aldNIOLawlQ2-32" vertex="1">
          <mxGeometry y="330" width="210" height="30" as="geometry" />
        </mxCell>
        <mxCell id="qfV262I-aldNIOLawlQ2-49" value="" style="shape=partialRectangle;html=1;whiteSpace=wrap;connectable=0;fillColor=none;top=0;left=0;bottom=0;right=0;overflow=hidden;strokeColor=inherit;fontSize=16;" parent="qfV262I-aldNIOLawlQ2-48" vertex="1">
          <mxGeometry width="42" height="30" as="geometry">
            <mxRectangle width="42" height="30" as="alternateBounds" />
          </mxGeometry>
        </mxCell>
        <mxCell id="qfV262I-aldNIOLawlQ2-50" value="Email" style="shape=partialRectangle;html=1;whiteSpace=wrap;connectable=0;fillColor=none;top=0;left=0;bottom=0;right=0;align=left;spacingLeft=6;overflow=hidden;strokeColor=inherit;fontSize=16;" parent="qfV262I-aldNIOLawlQ2-48" vertex="1">
          <mxGeometry x="42" width="168" height="30" as="geometry">
            <mxRectangle width="168" height="30" as="alternateBounds" />
          </mxGeometry>
        </mxCell>
        <mxCell id="qfV262I-aldNIOLawlQ2-51" value="" style="shape=tableRow;horizontal=0;startSize=0;swimlaneHead=0;swimlaneBody=0;top=0;left=0;bottom=0;right=0;collapsible=0;dropTarget=0;fillColor=none;points=[[0,0.5],[1,0.5]];portConstraint=eastwest;strokeColor=inherit;fontSize=16;" parent="qfV262I-aldNIOLawlQ2-32" vertex="1">
          <mxGeometry y="360" width="210" height="30" as="geometry" />
        </mxCell>
        <mxCell id="qfV262I-aldNIOLawlQ2-52" value="FK" style="shape=partialRectangle;html=1;whiteSpace=wrap;connectable=0;fillColor=none;top=0;left=0;bottom=0;right=0;overflow=hidden;strokeColor=inherit;fontSize=16;" parent="qfV262I-aldNIOLawlQ2-51" vertex="1">
          <mxGeometry width="42" height="30" as="geometry">
            <mxRectangle width="42" height="30" as="alternateBounds" />
          </mxGeometry>
        </mxCell>
        <mxCell id="qfV262I-aldNIOLawlQ2-53" value="NationalityCountryID" style="shape=partialRectangle;html=1;whiteSpace=wrap;connectable=0;fillColor=none;top=0;left=0;bottom=0;right=0;align=left;spacingLeft=6;overflow=hidden;strokeColor=inherit;fontSize=16;" parent="qfV262I-aldNIOLawlQ2-51" vertex="1">
          <mxGeometry x="42" width="168" height="30" as="geometry">
            <mxRectangle width="168" height="30" as="alternateBounds" />
          </mxGeometry>
        </mxCell>
        <mxCell id="qfV262I-aldNIOLawlQ2-54" value="" style="shape=tableRow;horizontal=0;startSize=0;swimlaneHead=0;swimlaneBody=0;top=0;left=0;bottom=0;right=0;collapsible=0;dropTarget=0;fillColor=none;points=[[0,0.5],[1,0.5]];portConstraint=eastwest;strokeColor=inherit;fontSize=16;" parent="qfV262I-aldNIOLawlQ2-32" vertex="1">
          <mxGeometry y="390" width="210" height="30" as="geometry" />
        </mxCell>
        <mxCell id="qfV262I-aldNIOLawlQ2-55" value="" style="shape=partialRectangle;html=1;whiteSpace=wrap;connectable=0;fillColor=none;top=0;left=0;bottom=0;right=0;overflow=hidden;strokeColor=inherit;fontSize=16;" parent="qfV262I-aldNIOLawlQ2-54" vertex="1">
          <mxGeometry width="42" height="30" as="geometry">
            <mxRectangle width="42" height="30" as="alternateBounds" />
          </mxGeometry>
        </mxCell>
        <mxCell id="qfV262I-aldNIOLawlQ2-56" value="ImagePath" style="shape=partialRectangle;html=1;whiteSpace=wrap;connectable=0;fillColor=none;top=0;left=0;bottom=0;right=0;align=left;spacingLeft=6;overflow=hidden;strokeColor=inherit;fontSize=16;" parent="qfV262I-aldNIOLawlQ2-54" vertex="1">
          <mxGeometry x="42" width="168" height="30" as="geometry">
            <mxRectangle width="168" height="30" as="alternateBounds" />
          </mxGeometry>
        </mxCell>
        <mxCell id="qfV262I-aldNIOLawlQ2-60" value="LicenseClasses" style="shape=table;startSize=30;container=1;collapsible=0;childLayout=tableLayout;fixedRows=1;rowLines=0;fontStyle=0;strokeColor=default;fontSize=16;" parent="1" vertex="1">
          <mxGeometry x="-210" y="810" width="210" height="210" as="geometry" />
        </mxCell>
        <mxCell id="qfV262I-aldNIOLawlQ2-61" value="" style="shape=tableRow;horizontal=0;startSize=0;swimlaneHead=0;swimlaneBody=0;top=0;left=0;bottom=0;right=0;collapsible=0;dropTarget=0;fillColor=none;points=[[0,0.5],[1,0.5]];portConstraint=eastwest;strokeColor=inherit;fontSize=16;" parent="qfV262I-aldNIOLawlQ2-60" vertex="1">
          <mxGeometry y="30" width="210" height="30" as="geometry" />
        </mxCell>
        <mxCell id="qfV262I-aldNIOLawlQ2-62" value="PK" style="shape=partialRectangle;html=1;whiteSpace=wrap;connectable=0;fillColor=none;top=0;left=0;bottom=0;right=0;overflow=hidden;pointerEvents=1;strokeColor=inherit;fontSize=16;" parent="qfV262I-aldNIOLawlQ2-61" vertex="1">
          <mxGeometry width="46" height="30" as="geometry">
            <mxRectangle width="46" height="30" as="alternateBounds" />
          </mxGeometry>
        </mxCell>
        <mxCell id="qfV262I-aldNIOLawlQ2-63" value="LicenseClassID" style="shape=partialRectangle;html=1;whiteSpace=wrap;connectable=0;fillColor=none;top=0;left=0;bottom=0;right=0;align=left;spacingLeft=6;overflow=hidden;strokeColor=inherit;fontSize=16;" parent="qfV262I-aldNIOLawlQ2-61" vertex="1">
          <mxGeometry x="46" width="164" height="30" as="geometry">
            <mxRectangle width="164" height="30" as="alternateBounds" />
          </mxGeometry>
        </mxCell>
        <mxCell id="qfV262I-aldNIOLawlQ2-64" value="" style="shape=tableRow;horizontal=0;startSize=0;swimlaneHead=0;swimlaneBody=0;top=0;left=0;bottom=0;right=0;collapsible=0;dropTarget=0;fillColor=none;points=[[0,0.5],[1,0.5]];portConstraint=eastwest;strokeColor=inherit;fontSize=16;" parent="qfV262I-aldNIOLawlQ2-60" vertex="1">
          <mxGeometry y="60" width="210" height="30" as="geometry" />
        </mxCell>
        <mxCell id="qfV262I-aldNIOLawlQ2-65" value="" style="shape=partialRectangle;html=1;whiteSpace=wrap;connectable=0;fillColor=none;top=0;left=0;bottom=0;right=0;overflow=hidden;strokeColor=inherit;fontSize=16;" parent="qfV262I-aldNIOLawlQ2-64" vertex="1">
          <mxGeometry width="46" height="30" as="geometry">
            <mxRectangle width="46" height="30" as="alternateBounds" />
          </mxGeometry>
        </mxCell>
        <mxCell id="qfV262I-aldNIOLawlQ2-66" value="ClassName" style="shape=partialRectangle;html=1;whiteSpace=wrap;connectable=0;fillColor=none;top=0;left=0;bottom=0;right=0;align=left;spacingLeft=6;overflow=hidden;strokeColor=inherit;fontSize=16;" parent="qfV262I-aldNIOLawlQ2-64" vertex="1">
          <mxGeometry x="46" width="164" height="30" as="geometry">
            <mxRectangle width="164" height="30" as="alternateBounds" />
          </mxGeometry>
        </mxCell>
        <mxCell id="qfV262I-aldNIOLawlQ2-67" value="" style="shape=tableRow;horizontal=0;startSize=0;swimlaneHead=0;swimlaneBody=0;top=0;left=0;bottom=0;right=0;collapsible=0;dropTarget=0;fillColor=none;points=[[0,0.5],[1,0.5]];portConstraint=eastwest;strokeColor=inherit;fontSize=16;" parent="qfV262I-aldNIOLawlQ2-60" vertex="1">
          <mxGeometry y="90" width="210" height="30" as="geometry" />
        </mxCell>
        <mxCell id="qfV262I-aldNIOLawlQ2-68" value="" style="shape=partialRectangle;html=1;whiteSpace=wrap;connectable=0;fillColor=none;top=0;left=0;bottom=0;right=0;overflow=hidden;strokeColor=inherit;fontSize=16;" parent="qfV262I-aldNIOLawlQ2-67" vertex="1">
          <mxGeometry width="46" height="30" as="geometry">
            <mxRectangle width="46" height="30" as="alternateBounds" />
          </mxGeometry>
        </mxCell>
        <mxCell id="qfV262I-aldNIOLawlQ2-69" value="ClassDescription&lt;div&gt;&lt;br&gt;&lt;/div&gt;" style="shape=partialRectangle;html=1;whiteSpace=wrap;connectable=0;fillColor=none;top=0;left=0;bottom=0;right=0;align=left;spacingLeft=6;overflow=hidden;strokeColor=inherit;fontSize=16;" parent="qfV262I-aldNIOLawlQ2-67" vertex="1">
          <mxGeometry x="46" width="164" height="30" as="geometry">
            <mxRectangle width="164" height="30" as="alternateBounds" />
          </mxGeometry>
        </mxCell>
        <mxCell id="qfV262I-aldNIOLawlQ2-70" value="" style="shape=tableRow;horizontal=0;startSize=0;swimlaneHead=0;swimlaneBody=0;top=0;left=0;bottom=0;right=0;collapsible=0;dropTarget=0;fillColor=none;points=[[0,0.5],[1,0.5]];portConstraint=eastwest;strokeColor=inherit;fontSize=16;" parent="qfV262I-aldNIOLawlQ2-60" vertex="1">
          <mxGeometry y="120" width="210" height="30" as="geometry" />
        </mxCell>
        <mxCell id="qfV262I-aldNIOLawlQ2-71" value="" style="shape=partialRectangle;html=1;whiteSpace=wrap;connectable=0;fillColor=none;top=0;left=0;bottom=0;right=0;overflow=hidden;strokeColor=inherit;fontSize=16;" parent="qfV262I-aldNIOLawlQ2-70" vertex="1">
          <mxGeometry width="46" height="30" as="geometry">
            <mxRectangle width="46" height="30" as="alternateBounds" />
          </mxGeometry>
        </mxCell>
        <mxCell id="qfV262I-aldNIOLawlQ2-72" value="DefultValidityLength" style="shape=partialRectangle;html=1;whiteSpace=wrap;connectable=0;fillColor=none;top=0;left=0;bottom=0;right=0;align=left;spacingLeft=6;overflow=hidden;strokeColor=inherit;fontSize=16;" parent="qfV262I-aldNIOLawlQ2-70" vertex="1">
          <mxGeometry x="46" width="164" height="30" as="geometry">
            <mxRectangle width="164" height="30" as="alternateBounds" />
          </mxGeometry>
        </mxCell>
        <mxCell id="qfV262I-aldNIOLawlQ2-73" value="" style="shape=tableRow;horizontal=0;startSize=0;swimlaneHead=0;swimlaneBody=0;top=0;left=0;bottom=0;right=0;collapsible=0;dropTarget=0;fillColor=none;points=[[0,0.5],[1,0.5]];portConstraint=eastwest;strokeColor=inherit;fontSize=16;" parent="qfV262I-aldNIOLawlQ2-60" vertex="1">
          <mxGeometry y="150" width="210" height="30" as="geometry" />
        </mxCell>
        <mxCell id="qfV262I-aldNIOLawlQ2-74" value="" style="shape=partialRectangle;html=1;whiteSpace=wrap;connectable=0;fillColor=none;top=0;left=0;bottom=0;right=0;overflow=hidden;strokeColor=inherit;fontSize=16;" parent="qfV262I-aldNIOLawlQ2-73" vertex="1">
          <mxGeometry width="46" height="30" as="geometry">
            <mxRectangle width="46" height="30" as="alternateBounds" />
          </mxGeometry>
        </mxCell>
        <mxCell id="qfV262I-aldNIOLawlQ2-75" value="MinimumAllowedAge" style="shape=partialRectangle;html=1;whiteSpace=wrap;connectable=0;fillColor=none;top=0;left=0;bottom=0;right=0;align=left;spacingLeft=6;overflow=hidden;strokeColor=inherit;fontSize=16;" parent="qfV262I-aldNIOLawlQ2-73" vertex="1">
          <mxGeometry x="46" width="164" height="30" as="geometry">
            <mxRectangle width="164" height="30" as="alternateBounds" />
          </mxGeometry>
        </mxCell>
        <mxCell id="qfV262I-aldNIOLawlQ2-76" value="" style="shape=tableRow;horizontal=0;startSize=0;swimlaneHead=0;swimlaneBody=0;top=0;left=0;bottom=0;right=0;collapsible=0;dropTarget=0;fillColor=none;points=[[0,0.5],[1,0.5]];portConstraint=eastwest;strokeColor=inherit;fontSize=16;" parent="qfV262I-aldNIOLawlQ2-60" vertex="1">
          <mxGeometry y="180" width="210" height="30" as="geometry" />
        </mxCell>
        <mxCell id="qfV262I-aldNIOLawlQ2-77" value="" style="shape=partialRectangle;html=1;whiteSpace=wrap;connectable=0;fillColor=none;top=0;left=0;bottom=0;right=0;overflow=hidden;strokeColor=inherit;fontSize=16;" parent="qfV262I-aldNIOLawlQ2-76" vertex="1">
          <mxGeometry width="46" height="30" as="geometry">
            <mxRectangle width="46" height="30" as="alternateBounds" />
          </mxGeometry>
        </mxCell>
        <mxCell id="qfV262I-aldNIOLawlQ2-78" value="ClassFees" style="shape=partialRectangle;html=1;whiteSpace=wrap;connectable=0;fillColor=none;top=0;left=0;bottom=0;right=0;align=left;spacingLeft=6;overflow=hidden;strokeColor=inherit;fontSize=16;" parent="qfV262I-aldNIOLawlQ2-76" vertex="1">
          <mxGeometry x="46" width="164" height="30" as="geometry">
            <mxRectangle width="164" height="30" as="alternateBounds" />
          </mxGeometry>
        </mxCell>
        <mxCell id="qfV262I-aldNIOLawlQ2-85" value="Tests" style="shape=table;startSize=30;container=1;collapsible=0;childLayout=tableLayout;fixedRows=1;rowLines=0;fontStyle=0;strokeColor=default;fontSize=16;" parent="1" vertex="1">
          <mxGeometry x="330" y="500" width="200" height="180" as="geometry" />
        </mxCell>
        <mxCell id="qfV262I-aldNIOLawlQ2-86" value="" style="shape=tableRow;horizontal=0;startSize=0;swimlaneHead=0;swimlaneBody=0;top=0;left=0;bottom=0;right=0;collapsible=0;dropTarget=0;fillColor=none;points=[[0,0.5],[1,0.5]];portConstraint=eastwest;strokeColor=inherit;fontSize=16;" parent="qfV262I-aldNIOLawlQ2-85" vertex="1">
          <mxGeometry y="30" width="200" height="30" as="geometry" />
        </mxCell>
        <mxCell id="qfV262I-aldNIOLawlQ2-87" value="PK" style="shape=partialRectangle;html=1;whiteSpace=wrap;connectable=0;fillColor=none;top=0;left=0;bottom=0;right=0;overflow=hidden;pointerEvents=1;strokeColor=inherit;fontSize=16;" parent="qfV262I-aldNIOLawlQ2-86" vertex="1">
          <mxGeometry width="42" height="30" as="geometry">
            <mxRectangle width="42" height="30" as="alternateBounds" />
          </mxGeometry>
        </mxCell>
        <mxCell id="qfV262I-aldNIOLawlQ2-88" value="TestID" style="shape=partialRectangle;html=1;whiteSpace=wrap;connectable=0;fillColor=none;top=0;left=0;bottom=0;right=0;align=left;spacingLeft=6;overflow=hidden;strokeColor=inherit;fontSize=16;" parent="qfV262I-aldNIOLawlQ2-86" vertex="1">
          <mxGeometry x="42" width="158" height="30" as="geometry">
            <mxRectangle width="158" height="30" as="alternateBounds" />
          </mxGeometry>
        </mxCell>
        <mxCell id="qfV262I-aldNIOLawlQ2-92" value="" style="shape=tableRow;horizontal=0;startSize=0;swimlaneHead=0;swimlaneBody=0;top=0;left=0;bottom=0;right=0;collapsible=0;dropTarget=0;fillColor=none;points=[[0,0.5],[1,0.5]];portConstraint=eastwest;strokeColor=inherit;fontSize=16;" parent="qfV262I-aldNIOLawlQ2-85" vertex="1">
          <mxGeometry y="60" width="200" height="30" as="geometry" />
        </mxCell>
        <mxCell id="qfV262I-aldNIOLawlQ2-93" value="FK" style="shape=partialRectangle;html=1;whiteSpace=wrap;connectable=0;fillColor=none;top=0;left=0;bottom=0;right=0;overflow=hidden;strokeColor=inherit;fontSize=16;" parent="qfV262I-aldNIOLawlQ2-92" vertex="1">
          <mxGeometry width="42" height="30" as="geometry">
            <mxRectangle width="42" height="30" as="alternateBounds" />
          </mxGeometry>
        </mxCell>
        <mxCell id="qfV262I-aldNIOLawlQ2-94" value="TestAppointmentID" style="shape=partialRectangle;html=1;whiteSpace=wrap;connectable=0;fillColor=none;top=0;left=0;bottom=0;right=0;align=left;spacingLeft=6;overflow=hidden;strokeColor=inherit;fontSize=16;" parent="qfV262I-aldNIOLawlQ2-92" vertex="1">
          <mxGeometry x="42" width="158" height="30" as="geometry">
            <mxRectangle width="158" height="30" as="alternateBounds" />
          </mxGeometry>
        </mxCell>
        <mxCell id="qfV262I-aldNIOLawlQ2-95" value="" style="shape=tableRow;horizontal=0;startSize=0;swimlaneHead=0;swimlaneBody=0;top=0;left=0;bottom=0;right=0;collapsible=0;dropTarget=0;fillColor=none;points=[[0,0.5],[1,0.5]];portConstraint=eastwest;strokeColor=inherit;fontSize=16;" parent="qfV262I-aldNIOLawlQ2-85" vertex="1">
          <mxGeometry y="90" width="200" height="30" as="geometry" />
        </mxCell>
        <mxCell id="qfV262I-aldNIOLawlQ2-96" value="" style="shape=partialRectangle;html=1;whiteSpace=wrap;connectable=0;fillColor=none;top=0;left=0;bottom=0;right=0;overflow=hidden;strokeColor=inherit;fontSize=16;" parent="qfV262I-aldNIOLawlQ2-95" vertex="1">
          <mxGeometry width="42" height="30" as="geometry">
            <mxRectangle width="42" height="30" as="alternateBounds" />
          </mxGeometry>
        </mxCell>
        <mxCell id="qfV262I-aldNIOLawlQ2-97" value="TestResult" style="shape=partialRectangle;html=1;whiteSpace=wrap;connectable=0;fillColor=none;top=0;left=0;bottom=0;right=0;align=left;spacingLeft=6;overflow=hidden;strokeColor=inherit;fontSize=16;" parent="qfV262I-aldNIOLawlQ2-95" vertex="1">
          <mxGeometry x="42" width="158" height="30" as="geometry">
            <mxRectangle width="158" height="30" as="alternateBounds" />
          </mxGeometry>
        </mxCell>
        <mxCell id="qfV262I-aldNIOLawlQ2-266" value="" style="shape=tableRow;horizontal=0;startSize=0;swimlaneHead=0;swimlaneBody=0;top=0;left=0;bottom=0;right=0;collapsible=0;dropTarget=0;fillColor=none;points=[[0,0.5],[1,0.5]];portConstraint=eastwest;strokeColor=inherit;fontSize=16;" parent="qfV262I-aldNIOLawlQ2-85" vertex="1">
          <mxGeometry y="120" width="200" height="30" as="geometry" />
        </mxCell>
        <mxCell id="qfV262I-aldNIOLawlQ2-267" value="" style="shape=partialRectangle;html=1;whiteSpace=wrap;connectable=0;fillColor=none;top=0;left=0;bottom=0;right=0;overflow=hidden;strokeColor=inherit;fontSize=16;" parent="qfV262I-aldNIOLawlQ2-266" vertex="1">
          <mxGeometry width="42" height="30" as="geometry">
            <mxRectangle width="42" height="30" as="alternateBounds" />
          </mxGeometry>
        </mxCell>
        <mxCell id="qfV262I-aldNIOLawlQ2-268" value="Notes" style="shape=partialRectangle;html=1;whiteSpace=wrap;connectable=0;fillColor=none;top=0;left=0;bottom=0;right=0;align=left;spacingLeft=6;overflow=hidden;strokeColor=inherit;fontSize=16;" parent="qfV262I-aldNIOLawlQ2-266" vertex="1">
          <mxGeometry x="42" width="158" height="30" as="geometry">
            <mxRectangle width="158" height="30" as="alternateBounds" />
          </mxGeometry>
        </mxCell>
        <mxCell id="qfV262I-aldNIOLawlQ2-269" value="" style="shape=tableRow;horizontal=0;startSize=0;swimlaneHead=0;swimlaneBody=0;top=0;left=0;bottom=0;right=0;collapsible=0;dropTarget=0;fillColor=none;points=[[0,0.5],[1,0.5]];portConstraint=eastwest;strokeColor=inherit;fontSize=16;" parent="qfV262I-aldNIOLawlQ2-85" vertex="1">
          <mxGeometry y="150" width="200" height="30" as="geometry" />
        </mxCell>
        <mxCell id="qfV262I-aldNIOLawlQ2-270" value="FK" style="shape=partialRectangle;html=1;whiteSpace=wrap;connectable=0;fillColor=none;top=0;left=0;bottom=0;right=0;overflow=hidden;strokeColor=inherit;fontSize=16;" parent="qfV262I-aldNIOLawlQ2-269" vertex="1">
          <mxGeometry width="42" height="30" as="geometry">
            <mxRectangle width="42" height="30" as="alternateBounds" />
          </mxGeometry>
        </mxCell>
        <mxCell id="qfV262I-aldNIOLawlQ2-271" value="CreatedByUserID" style="shape=partialRectangle;html=1;whiteSpace=wrap;connectable=0;fillColor=none;top=0;left=0;bottom=0;right=0;align=left;spacingLeft=6;overflow=hidden;strokeColor=inherit;fontSize=16;" parent="qfV262I-aldNIOLawlQ2-269" vertex="1">
          <mxGeometry x="42" width="158" height="30" as="geometry">
            <mxRectangle width="158" height="30" as="alternateBounds" />
          </mxGeometry>
        </mxCell>
        <mxCell id="qfV262I-aldNIOLawlQ2-135" value="Licenses" style="shape=table;startSize=30;container=1;collapsible=0;childLayout=tableLayout;fixedRows=1;rowLines=0;fontStyle=0;strokeColor=default;fontSize=16;" parent="1" vertex="1">
          <mxGeometry x="170" y="1130" width="190" height="300" as="geometry" />
        </mxCell>
        <mxCell id="qfV262I-aldNIOLawlQ2-136" value="" style="shape=tableRow;horizontal=0;startSize=0;swimlaneHead=0;swimlaneBody=0;top=0;left=0;bottom=0;right=0;collapsible=0;dropTarget=0;fillColor=none;points=[[0,0.5],[1,0.5]];portConstraint=eastwest;strokeColor=inherit;fontSize=16;" parent="qfV262I-aldNIOLawlQ2-135" vertex="1">
          <mxGeometry y="30" width="190" height="30" as="geometry" />
        </mxCell>
        <mxCell id="qfV262I-aldNIOLawlQ2-137" value="PK" style="shape=partialRectangle;html=1;whiteSpace=wrap;connectable=0;fillColor=none;top=0;left=0;bottom=0;right=0;overflow=hidden;pointerEvents=1;strokeColor=inherit;fontSize=16;" parent="qfV262I-aldNIOLawlQ2-136" vertex="1">
          <mxGeometry width="42" height="30" as="geometry">
            <mxRectangle width="42" height="30" as="alternateBounds" />
          </mxGeometry>
        </mxCell>
        <mxCell id="qfV262I-aldNIOLawlQ2-138" value="LicenseID" style="shape=partialRectangle;html=1;whiteSpace=wrap;connectable=0;fillColor=none;top=0;left=0;bottom=0;right=0;align=left;spacingLeft=6;overflow=hidden;strokeColor=inherit;fontSize=16;" parent="qfV262I-aldNIOLawlQ2-136" vertex="1">
          <mxGeometry x="42" width="148" height="30" as="geometry">
            <mxRectangle width="148" height="30" as="alternateBounds" />
          </mxGeometry>
        </mxCell>
        <mxCell id="qfV262I-aldNIOLawlQ2-139" value="" style="shape=tableRow;horizontal=0;startSize=0;swimlaneHead=0;swimlaneBody=0;top=0;left=0;bottom=0;right=0;collapsible=0;dropTarget=0;fillColor=none;points=[[0,0.5],[1,0.5]];portConstraint=eastwest;strokeColor=inherit;fontSize=16;" parent="qfV262I-aldNIOLawlQ2-135" vertex="1">
          <mxGeometry y="60" width="190" height="30" as="geometry" />
        </mxCell>
        <mxCell id="qfV262I-aldNIOLawlQ2-140" value="FK" style="shape=partialRectangle;html=1;whiteSpace=wrap;connectable=0;fillColor=none;top=0;left=0;bottom=0;right=0;overflow=hidden;strokeColor=inherit;fontSize=16;" parent="qfV262I-aldNIOLawlQ2-139" vertex="1">
          <mxGeometry width="42" height="30" as="geometry">
            <mxRectangle width="42" height="30" as="alternateBounds" />
          </mxGeometry>
        </mxCell>
        <mxCell id="qfV262I-aldNIOLawlQ2-141" value="ApplicationID" style="shape=partialRectangle;html=1;whiteSpace=wrap;connectable=0;fillColor=none;top=0;left=0;bottom=0;right=0;align=left;spacingLeft=6;overflow=hidden;strokeColor=inherit;fontSize=16;" parent="qfV262I-aldNIOLawlQ2-139" vertex="1">
          <mxGeometry x="42" width="148" height="30" as="geometry">
            <mxRectangle width="148" height="30" as="alternateBounds" />
          </mxGeometry>
        </mxCell>
        <mxCell id="qfV262I-aldNIOLawlQ2-142" value="" style="shape=tableRow;horizontal=0;startSize=0;swimlaneHead=0;swimlaneBody=0;top=0;left=0;bottom=0;right=0;collapsible=0;dropTarget=0;fillColor=none;points=[[0,0.5],[1,0.5]];portConstraint=eastwest;strokeColor=inherit;fontSize=16;" parent="qfV262I-aldNIOLawlQ2-135" vertex="1">
          <mxGeometry y="90" width="190" height="30" as="geometry" />
        </mxCell>
        <mxCell id="qfV262I-aldNIOLawlQ2-143" value="FK" style="shape=partialRectangle;html=1;whiteSpace=wrap;connectable=0;fillColor=none;top=0;left=0;bottom=0;right=0;overflow=hidden;strokeColor=inherit;fontSize=16;" parent="qfV262I-aldNIOLawlQ2-142" vertex="1">
          <mxGeometry width="42" height="30" as="geometry">
            <mxRectangle width="42" height="30" as="alternateBounds" />
          </mxGeometry>
        </mxCell>
        <mxCell id="qfV262I-aldNIOLawlQ2-144" value="DriverID" style="shape=partialRectangle;html=1;whiteSpace=wrap;connectable=0;fillColor=none;top=0;left=0;bottom=0;right=0;align=left;spacingLeft=6;overflow=hidden;strokeColor=inherit;fontSize=16;" parent="qfV262I-aldNIOLawlQ2-142" vertex="1">
          <mxGeometry x="42" width="148" height="30" as="geometry">
            <mxRectangle width="148" height="30" as="alternateBounds" />
          </mxGeometry>
        </mxCell>
        <mxCell id="qfV262I-aldNIOLawlQ2-148" value="" style="shape=tableRow;horizontal=0;startSize=0;swimlaneHead=0;swimlaneBody=0;top=0;left=0;bottom=0;right=0;collapsible=0;dropTarget=0;fillColor=none;points=[[0,0.5],[1,0.5]];portConstraint=eastwest;strokeColor=inherit;fontSize=16;" parent="qfV262I-aldNIOLawlQ2-135" vertex="1">
          <mxGeometry y="120" width="190" height="30" as="geometry" />
        </mxCell>
        <mxCell id="qfV262I-aldNIOLawlQ2-149" value="FK" style="shape=partialRectangle;html=1;whiteSpace=wrap;connectable=0;fillColor=none;top=0;left=0;bottom=0;right=0;overflow=hidden;strokeColor=inherit;fontSize=16;" parent="qfV262I-aldNIOLawlQ2-148" vertex="1">
          <mxGeometry width="42" height="30" as="geometry">
            <mxRectangle width="42" height="30" as="alternateBounds" />
          </mxGeometry>
        </mxCell>
        <mxCell id="qfV262I-aldNIOLawlQ2-150" value="LicenceClassID" style="shape=partialRectangle;html=1;whiteSpace=wrap;connectable=0;fillColor=none;top=0;left=0;bottom=0;right=0;align=left;spacingLeft=6;overflow=hidden;strokeColor=inherit;fontSize=16;" parent="qfV262I-aldNIOLawlQ2-148" vertex="1">
          <mxGeometry x="42" width="148" height="30" as="geometry">
            <mxRectangle width="148" height="30" as="alternateBounds" />
          </mxGeometry>
        </mxCell>
        <mxCell id="qfV262I-aldNIOLawlQ2-151" value="" style="shape=tableRow;horizontal=0;startSize=0;swimlaneHead=0;swimlaneBody=0;top=0;left=0;bottom=0;right=0;collapsible=0;dropTarget=0;fillColor=none;points=[[0,0.5],[1,0.5]];portConstraint=eastwest;strokeColor=inherit;fontSize=16;" parent="qfV262I-aldNIOLawlQ2-135" vertex="1">
          <mxGeometry y="150" width="190" height="30" as="geometry" />
        </mxCell>
        <mxCell id="qfV262I-aldNIOLawlQ2-152" value="" style="shape=partialRectangle;html=1;whiteSpace=wrap;connectable=0;fillColor=none;top=0;left=0;bottom=0;right=0;overflow=hidden;strokeColor=inherit;fontSize=16;" parent="qfV262I-aldNIOLawlQ2-151" vertex="1">
          <mxGeometry width="42" height="30" as="geometry">
            <mxRectangle width="42" height="30" as="alternateBounds" />
          </mxGeometry>
        </mxCell>
        <mxCell id="qfV262I-aldNIOLawlQ2-153" value="IssueDate" style="shape=partialRectangle;html=1;whiteSpace=wrap;connectable=0;fillColor=none;top=0;left=0;bottom=0;right=0;align=left;spacingLeft=6;overflow=hidden;strokeColor=inherit;fontSize=16;" parent="qfV262I-aldNIOLawlQ2-151" vertex="1">
          <mxGeometry x="42" width="148" height="30" as="geometry">
            <mxRectangle width="148" height="30" as="alternateBounds" />
          </mxGeometry>
        </mxCell>
        <mxCell id="qfV262I-aldNIOLawlQ2-154" value="" style="shape=tableRow;horizontal=0;startSize=0;swimlaneHead=0;swimlaneBody=0;top=0;left=0;bottom=0;right=0;collapsible=0;dropTarget=0;fillColor=none;points=[[0,0.5],[1,0.5]];portConstraint=eastwest;strokeColor=inherit;fontSize=16;" parent="qfV262I-aldNIOLawlQ2-135" vertex="1">
          <mxGeometry y="180" width="190" height="30" as="geometry" />
        </mxCell>
        <mxCell id="qfV262I-aldNIOLawlQ2-155" value="" style="shape=partialRectangle;html=1;whiteSpace=wrap;connectable=0;fillColor=none;top=0;left=0;bottom=0;right=0;overflow=hidden;strokeColor=inherit;fontSize=16;" parent="qfV262I-aldNIOLawlQ2-154" vertex="1">
          <mxGeometry width="42" height="30" as="geometry">
            <mxRectangle width="42" height="30" as="alternateBounds" />
          </mxGeometry>
        </mxCell>
        <mxCell id="qfV262I-aldNIOLawlQ2-156" value="ExpireDate" style="shape=partialRectangle;html=1;whiteSpace=wrap;connectable=0;fillColor=none;top=0;left=0;bottom=0;right=0;align=left;spacingLeft=6;overflow=hidden;strokeColor=inherit;fontSize=16;" parent="qfV262I-aldNIOLawlQ2-154" vertex="1">
          <mxGeometry x="42" width="148" height="30" as="geometry">
            <mxRectangle width="148" height="30" as="alternateBounds" />
          </mxGeometry>
        </mxCell>
        <mxCell id="qfV262I-aldNIOLawlQ2-157" value="" style="shape=tableRow;horizontal=0;startSize=0;swimlaneHead=0;swimlaneBody=0;top=0;left=0;bottom=0;right=0;collapsible=0;dropTarget=0;fillColor=none;points=[[0,0.5],[1,0.5]];portConstraint=eastwest;strokeColor=inherit;fontSize=16;" parent="qfV262I-aldNIOLawlQ2-135" vertex="1">
          <mxGeometry y="210" width="190" height="30" as="geometry" />
        </mxCell>
        <mxCell id="qfV262I-aldNIOLawlQ2-158" value="" style="shape=partialRectangle;html=1;whiteSpace=wrap;connectable=0;fillColor=none;top=0;left=0;bottom=0;right=0;overflow=hidden;strokeColor=inherit;fontSize=16;" parent="qfV262I-aldNIOLawlQ2-157" vertex="1">
          <mxGeometry width="42" height="30" as="geometry">
            <mxRectangle width="42" height="30" as="alternateBounds" />
          </mxGeometry>
        </mxCell>
        <mxCell id="qfV262I-aldNIOLawlQ2-159" value="Notes" style="shape=partialRectangle;html=1;whiteSpace=wrap;connectable=0;fillColor=none;top=0;left=0;bottom=0;right=0;align=left;spacingLeft=6;overflow=hidden;strokeColor=inherit;fontSize=16;" parent="qfV262I-aldNIOLawlQ2-157" vertex="1">
          <mxGeometry x="42" width="148" height="30" as="geometry">
            <mxRectangle width="148" height="30" as="alternateBounds" />
          </mxGeometry>
        </mxCell>
        <mxCell id="qfV262I-aldNIOLawlQ2-160" value="" style="shape=tableRow;horizontal=0;startSize=0;swimlaneHead=0;swimlaneBody=0;top=0;left=0;bottom=0;right=0;collapsible=0;dropTarget=0;fillColor=none;points=[[0,0.5],[1,0.5]];portConstraint=eastwest;strokeColor=inherit;fontSize=16;" parent="qfV262I-aldNIOLawlQ2-135" vertex="1">
          <mxGeometry y="240" width="190" height="30" as="geometry" />
        </mxCell>
        <mxCell id="qfV262I-aldNIOLawlQ2-161" value="" style="shape=partialRectangle;html=1;whiteSpace=wrap;connectable=0;fillColor=none;top=0;left=0;bottom=0;right=0;overflow=hidden;strokeColor=inherit;fontSize=16;" parent="qfV262I-aldNIOLawlQ2-160" vertex="1">
          <mxGeometry width="42" height="30" as="geometry">
            <mxRectangle width="42" height="30" as="alternateBounds" />
          </mxGeometry>
        </mxCell>
        <mxCell id="qfV262I-aldNIOLawlQ2-162" value="PaidFees" style="shape=partialRectangle;html=1;whiteSpace=wrap;connectable=0;fillColor=none;top=0;left=0;bottom=0;right=0;align=left;spacingLeft=6;overflow=hidden;strokeColor=inherit;fontSize=16;" parent="qfV262I-aldNIOLawlQ2-160" vertex="1">
          <mxGeometry x="42" width="148" height="30" as="geometry">
            <mxRectangle width="148" height="30" as="alternateBounds" />
          </mxGeometry>
        </mxCell>
        <mxCell id="qfV262I-aldNIOLawlQ2-163" value="" style="shape=tableRow;horizontal=0;startSize=0;swimlaneHead=0;swimlaneBody=0;top=0;left=0;bottom=0;right=0;collapsible=0;dropTarget=0;fillColor=none;points=[[0,0.5],[1,0.5]];portConstraint=eastwest;strokeColor=inherit;fontSize=16;" parent="qfV262I-aldNIOLawlQ2-135" vertex="1">
          <mxGeometry y="270" width="190" height="30" as="geometry" />
        </mxCell>
        <mxCell id="qfV262I-aldNIOLawlQ2-164" value="FK" style="shape=partialRectangle;html=1;whiteSpace=wrap;connectable=0;fillColor=none;top=0;left=0;bottom=0;right=0;overflow=hidden;strokeColor=inherit;fontSize=16;" parent="qfV262I-aldNIOLawlQ2-163" vertex="1">
          <mxGeometry width="42" height="30" as="geometry">
            <mxRectangle width="42" height="30" as="alternateBounds" />
          </mxGeometry>
        </mxCell>
        <mxCell id="qfV262I-aldNIOLawlQ2-165" value="CreatedByUserID" style="shape=partialRectangle;html=1;whiteSpace=wrap;connectable=0;fillColor=none;top=0;left=0;bottom=0;right=0;align=left;spacingLeft=6;overflow=hidden;strokeColor=inherit;fontSize=16;" parent="qfV262I-aldNIOLawlQ2-163" vertex="1">
          <mxGeometry x="42" width="148" height="30" as="geometry">
            <mxRectangle width="148" height="30" as="alternateBounds" />
          </mxGeometry>
        </mxCell>
        <mxCell id="qfV262I-aldNIOLawlQ2-166" value="TestTypes" style="shape=table;startSize=30;container=1;collapsible=0;childLayout=tableLayout;fixedRows=1;rowLines=0;fontStyle=0;strokeColor=default;fontSize=16;" parent="1" vertex="1">
          <mxGeometry x="240" y="850" width="210" height="150" as="geometry" />
        </mxCell>
        <mxCell id="qfV262I-aldNIOLawlQ2-167" value="" style="shape=tableRow;horizontal=0;startSize=0;swimlaneHead=0;swimlaneBody=0;top=0;left=0;bottom=0;right=0;collapsible=0;dropTarget=0;fillColor=none;points=[[0,0.5],[1,0.5]];portConstraint=eastwest;strokeColor=inherit;fontSize=16;" parent="qfV262I-aldNIOLawlQ2-166" vertex="1">
          <mxGeometry y="30" width="210" height="30" as="geometry" />
        </mxCell>
        <mxCell id="qfV262I-aldNIOLawlQ2-168" value="PK" style="shape=partialRectangle;html=1;whiteSpace=wrap;connectable=0;fillColor=none;top=0;left=0;bottom=0;right=0;overflow=hidden;pointerEvents=1;strokeColor=inherit;fontSize=16;" parent="qfV262I-aldNIOLawlQ2-167" vertex="1">
          <mxGeometry width="42" height="30" as="geometry">
            <mxRectangle width="42" height="30" as="alternateBounds" />
          </mxGeometry>
        </mxCell>
        <mxCell id="qfV262I-aldNIOLawlQ2-169" value="TestTypeID" style="shape=partialRectangle;html=1;whiteSpace=wrap;connectable=0;fillColor=none;top=0;left=0;bottom=0;right=0;align=left;spacingLeft=6;overflow=hidden;strokeColor=inherit;fontSize=16;" parent="qfV262I-aldNIOLawlQ2-167" vertex="1">
          <mxGeometry x="42" width="168" height="30" as="geometry">
            <mxRectangle width="168" height="30" as="alternateBounds" />
          </mxGeometry>
        </mxCell>
        <mxCell id="qfV262I-aldNIOLawlQ2-170" value="" style="shape=tableRow;horizontal=0;startSize=0;swimlaneHead=0;swimlaneBody=0;top=0;left=0;bottom=0;right=0;collapsible=0;dropTarget=0;fillColor=none;points=[[0,0.5],[1,0.5]];portConstraint=eastwest;strokeColor=inherit;fontSize=16;" parent="qfV262I-aldNIOLawlQ2-166" vertex="1">
          <mxGeometry y="60" width="210" height="30" as="geometry" />
        </mxCell>
        <mxCell id="qfV262I-aldNIOLawlQ2-171" value="" style="shape=partialRectangle;html=1;whiteSpace=wrap;connectable=0;fillColor=none;top=0;left=0;bottom=0;right=0;overflow=hidden;strokeColor=inherit;fontSize=16;" parent="qfV262I-aldNIOLawlQ2-170" vertex="1">
          <mxGeometry width="42" height="30" as="geometry">
            <mxRectangle width="42" height="30" as="alternateBounds" />
          </mxGeometry>
        </mxCell>
        <mxCell id="qfV262I-aldNIOLawlQ2-172" value="TestTypeTitle" style="shape=partialRectangle;html=1;whiteSpace=wrap;connectable=0;fillColor=none;top=0;left=0;bottom=0;right=0;align=left;spacingLeft=6;overflow=hidden;strokeColor=inherit;fontSize=16;" parent="qfV262I-aldNIOLawlQ2-170" vertex="1">
          <mxGeometry x="42" width="168" height="30" as="geometry">
            <mxRectangle width="168" height="30" as="alternateBounds" />
          </mxGeometry>
        </mxCell>
        <mxCell id="qfV262I-aldNIOLawlQ2-173" value="" style="shape=tableRow;horizontal=0;startSize=0;swimlaneHead=0;swimlaneBody=0;top=0;left=0;bottom=0;right=0;collapsible=0;dropTarget=0;fillColor=none;points=[[0,0.5],[1,0.5]];portConstraint=eastwest;strokeColor=inherit;fontSize=16;" parent="qfV262I-aldNIOLawlQ2-166" vertex="1">
          <mxGeometry y="90" width="210" height="30" as="geometry" />
        </mxCell>
        <mxCell id="qfV262I-aldNIOLawlQ2-174" value="" style="shape=partialRectangle;html=1;whiteSpace=wrap;connectable=0;fillColor=none;top=0;left=0;bottom=0;right=0;overflow=hidden;strokeColor=inherit;fontSize=16;" parent="qfV262I-aldNIOLawlQ2-173" vertex="1">
          <mxGeometry width="42" height="30" as="geometry">
            <mxRectangle width="42" height="30" as="alternateBounds" />
          </mxGeometry>
        </mxCell>
        <mxCell id="qfV262I-aldNIOLawlQ2-175" value="TestTypeDescription" style="shape=partialRectangle;html=1;whiteSpace=wrap;connectable=0;fillColor=none;top=0;left=0;bottom=0;right=0;align=left;spacingLeft=6;overflow=hidden;strokeColor=inherit;fontSize=16;" parent="qfV262I-aldNIOLawlQ2-173" vertex="1">
          <mxGeometry x="42" width="168" height="30" as="geometry">
            <mxRectangle width="168" height="30" as="alternateBounds" />
          </mxGeometry>
        </mxCell>
        <mxCell id="qfV262I-aldNIOLawlQ2-176" value="" style="shape=tableRow;horizontal=0;startSize=0;swimlaneHead=0;swimlaneBody=0;top=0;left=0;bottom=0;right=0;collapsible=0;dropTarget=0;fillColor=none;points=[[0,0.5],[1,0.5]];portConstraint=eastwest;strokeColor=inherit;fontSize=16;" parent="qfV262I-aldNIOLawlQ2-166" vertex="1">
          <mxGeometry y="120" width="210" height="30" as="geometry" />
        </mxCell>
        <mxCell id="qfV262I-aldNIOLawlQ2-177" value="" style="shape=partialRectangle;html=1;whiteSpace=wrap;connectable=0;fillColor=none;top=0;left=0;bottom=0;right=0;overflow=hidden;strokeColor=inherit;fontSize=16;" parent="qfV262I-aldNIOLawlQ2-176" vertex="1">
          <mxGeometry width="42" height="30" as="geometry">
            <mxRectangle width="42" height="30" as="alternateBounds" />
          </mxGeometry>
        </mxCell>
        <mxCell id="qfV262I-aldNIOLawlQ2-178" value="TestTypeFees" style="shape=partialRectangle;html=1;whiteSpace=wrap;connectable=0;fillColor=none;top=0;left=0;bottom=0;right=0;align=left;spacingLeft=6;overflow=hidden;strokeColor=inherit;fontSize=16;" parent="qfV262I-aldNIOLawlQ2-176" vertex="1">
          <mxGeometry x="42" width="168" height="30" as="geometry">
            <mxRectangle width="168" height="30" as="alternateBounds" />
          </mxGeometry>
        </mxCell>
        <mxCell id="qfV262I-aldNIOLawlQ2-191" value="Users" style="shape=table;startSize=30;container=1;collapsible=0;childLayout=tableLayout;fixedRows=1;rowLines=0;fontStyle=0;strokeColor=default;fontSize=16;" parent="1" vertex="1">
          <mxGeometry x="730" y="-340" width="180" height="180" as="geometry" />
        </mxCell>
        <mxCell id="qfV262I-aldNIOLawlQ2-192" value="" style="shape=tableRow;horizontal=0;startSize=0;swimlaneHead=0;swimlaneBody=0;top=0;left=0;bottom=0;right=0;collapsible=0;dropTarget=0;fillColor=none;points=[[0,0.5],[1,0.5]];portConstraint=eastwest;strokeColor=inherit;fontSize=16;" parent="qfV262I-aldNIOLawlQ2-191" vertex="1">
          <mxGeometry y="30" width="180" height="30" as="geometry" />
        </mxCell>
        <mxCell id="qfV262I-aldNIOLawlQ2-193" value="PK" style="shape=partialRectangle;html=1;whiteSpace=wrap;connectable=0;fillColor=none;top=0;left=0;bottom=0;right=0;overflow=hidden;pointerEvents=1;strokeColor=inherit;fontSize=16;" parent="qfV262I-aldNIOLawlQ2-192" vertex="1">
          <mxGeometry width="42" height="30" as="geometry">
            <mxRectangle width="42" height="30" as="alternateBounds" />
          </mxGeometry>
        </mxCell>
        <mxCell id="qfV262I-aldNIOLawlQ2-194" value="UserID" style="shape=partialRectangle;html=1;whiteSpace=wrap;connectable=0;fillColor=none;top=0;left=0;bottom=0;right=0;align=left;spacingLeft=6;overflow=hidden;strokeColor=inherit;fontSize=16;" parent="qfV262I-aldNIOLawlQ2-192" vertex="1">
          <mxGeometry x="42" width="138" height="30" as="geometry">
            <mxRectangle width="138" height="30" as="alternateBounds" />
          </mxGeometry>
        </mxCell>
        <mxCell id="qfV262I-aldNIOLawlQ2-195" value="" style="shape=tableRow;horizontal=0;startSize=0;swimlaneHead=0;swimlaneBody=0;top=0;left=0;bottom=0;right=0;collapsible=0;dropTarget=0;fillColor=none;points=[[0,0.5],[1,0.5]];portConstraint=eastwest;strokeColor=inherit;fontSize=16;" parent="qfV262I-aldNIOLawlQ2-191" vertex="1">
          <mxGeometry y="60" width="180" height="30" as="geometry" />
        </mxCell>
        <mxCell id="qfV262I-aldNIOLawlQ2-196" value="FK" style="shape=partialRectangle;html=1;whiteSpace=wrap;connectable=0;fillColor=none;top=0;left=0;bottom=0;right=0;overflow=hidden;strokeColor=inherit;fontSize=16;" parent="qfV262I-aldNIOLawlQ2-195" vertex="1">
          <mxGeometry width="42" height="30" as="geometry">
            <mxRectangle width="42" height="30" as="alternateBounds" />
          </mxGeometry>
        </mxCell>
        <mxCell id="qfV262I-aldNIOLawlQ2-197" value="PersonID" style="shape=partialRectangle;html=1;whiteSpace=wrap;connectable=0;fillColor=none;top=0;left=0;bottom=0;right=0;align=left;spacingLeft=6;overflow=hidden;strokeColor=inherit;fontSize=16;" parent="qfV262I-aldNIOLawlQ2-195" vertex="1">
          <mxGeometry x="42" width="138" height="30" as="geometry">
            <mxRectangle width="138" height="30" as="alternateBounds" />
          </mxGeometry>
        </mxCell>
        <mxCell id="qfV262I-aldNIOLawlQ2-198" value="" style="shape=tableRow;horizontal=0;startSize=0;swimlaneHead=0;swimlaneBody=0;top=0;left=0;bottom=0;right=0;collapsible=0;dropTarget=0;fillColor=none;points=[[0,0.5],[1,0.5]];portConstraint=eastwest;strokeColor=inherit;fontSize=16;" parent="qfV262I-aldNIOLawlQ2-191" vertex="1">
          <mxGeometry y="90" width="180" height="30" as="geometry" />
        </mxCell>
        <mxCell id="qfV262I-aldNIOLawlQ2-199" value="" style="shape=partialRectangle;html=1;whiteSpace=wrap;connectable=0;fillColor=none;top=0;left=0;bottom=0;right=0;overflow=hidden;strokeColor=inherit;fontSize=16;" parent="qfV262I-aldNIOLawlQ2-198" vertex="1">
          <mxGeometry width="42" height="30" as="geometry">
            <mxRectangle width="42" height="30" as="alternateBounds" />
          </mxGeometry>
        </mxCell>
        <mxCell id="qfV262I-aldNIOLawlQ2-200" value="UserName" style="shape=partialRectangle;html=1;whiteSpace=wrap;connectable=0;fillColor=none;top=0;left=0;bottom=0;right=0;align=left;spacingLeft=6;overflow=hidden;strokeColor=inherit;fontSize=16;" parent="qfV262I-aldNIOLawlQ2-198" vertex="1">
          <mxGeometry x="42" width="138" height="30" as="geometry">
            <mxRectangle width="138" height="30" as="alternateBounds" />
          </mxGeometry>
        </mxCell>
        <mxCell id="qfV262I-aldNIOLawlQ2-201" value="" style="shape=tableRow;horizontal=0;startSize=0;swimlaneHead=0;swimlaneBody=0;top=0;left=0;bottom=0;right=0;collapsible=0;dropTarget=0;fillColor=none;points=[[0,0.5],[1,0.5]];portConstraint=eastwest;strokeColor=inherit;fontSize=16;" parent="qfV262I-aldNIOLawlQ2-191" vertex="1">
          <mxGeometry y="120" width="180" height="30" as="geometry" />
        </mxCell>
        <mxCell id="qfV262I-aldNIOLawlQ2-202" value="" style="shape=partialRectangle;html=1;whiteSpace=wrap;connectable=0;fillColor=none;top=0;left=0;bottom=0;right=0;overflow=hidden;strokeColor=inherit;fontSize=16;" parent="qfV262I-aldNIOLawlQ2-201" vertex="1">
          <mxGeometry width="42" height="30" as="geometry">
            <mxRectangle width="42" height="30" as="alternateBounds" />
          </mxGeometry>
        </mxCell>
        <mxCell id="qfV262I-aldNIOLawlQ2-203" value="Password" style="shape=partialRectangle;html=1;whiteSpace=wrap;connectable=0;fillColor=none;top=0;left=0;bottom=0;right=0;align=left;spacingLeft=6;overflow=hidden;strokeColor=inherit;fontSize=16;" parent="qfV262I-aldNIOLawlQ2-201" vertex="1">
          <mxGeometry x="42" width="138" height="30" as="geometry">
            <mxRectangle width="138" height="30" as="alternateBounds" />
          </mxGeometry>
        </mxCell>
        <mxCell id="qfV262I-aldNIOLawlQ2-204" value="" style="shape=tableRow;horizontal=0;startSize=0;swimlaneHead=0;swimlaneBody=0;top=0;left=0;bottom=0;right=0;collapsible=0;dropTarget=0;fillColor=none;points=[[0,0.5],[1,0.5]];portConstraint=eastwest;strokeColor=inherit;fontSize=16;" parent="qfV262I-aldNIOLawlQ2-191" vertex="1">
          <mxGeometry y="150" width="180" height="30" as="geometry" />
        </mxCell>
        <mxCell id="qfV262I-aldNIOLawlQ2-205" value="" style="shape=partialRectangle;html=1;whiteSpace=wrap;connectable=0;fillColor=none;top=0;left=0;bottom=0;right=0;overflow=hidden;strokeColor=inherit;fontSize=16;" parent="qfV262I-aldNIOLawlQ2-204" vertex="1">
          <mxGeometry width="42" height="30" as="geometry">
            <mxRectangle width="42" height="30" as="alternateBounds" />
          </mxGeometry>
        </mxCell>
        <mxCell id="qfV262I-aldNIOLawlQ2-206" value="IsActive" style="shape=partialRectangle;html=1;whiteSpace=wrap;connectable=0;fillColor=none;top=0;left=0;bottom=0;right=0;align=left;spacingLeft=6;overflow=hidden;strokeColor=inherit;fontSize=16;" parent="qfV262I-aldNIOLawlQ2-204" vertex="1">
          <mxGeometry x="42" width="138" height="30" as="geometry">
            <mxRectangle width="138" height="30" as="alternateBounds" />
          </mxGeometry>
        </mxCell>
        <mxCell id="qfV262I-aldNIOLawlQ2-256" value="Countries" style="shape=table;startSize=30;container=1;collapsible=0;childLayout=tableLayout;fixedRows=1;rowLines=0;fontStyle=0;strokeColor=default;fontSize=16;" parent="1" vertex="1">
          <mxGeometry x="680" y="380" width="180" height="90" as="geometry" />
        </mxCell>
        <mxCell id="qfV262I-aldNIOLawlQ2-257" value="" style="shape=tableRow;horizontal=0;startSize=0;swimlaneHead=0;swimlaneBody=0;top=0;left=0;bottom=0;right=0;collapsible=0;dropTarget=0;fillColor=none;points=[[0,0.5],[1,0.5]];portConstraint=eastwest;strokeColor=inherit;fontSize=16;" parent="qfV262I-aldNIOLawlQ2-256" vertex="1">
          <mxGeometry y="30" width="180" height="30" as="geometry" />
        </mxCell>
        <mxCell id="qfV262I-aldNIOLawlQ2-258" value="PK" style="shape=partialRectangle;html=1;whiteSpace=wrap;connectable=0;fillColor=none;top=0;left=0;bottom=0;right=0;overflow=hidden;pointerEvents=1;strokeColor=inherit;fontSize=16;" parent="qfV262I-aldNIOLawlQ2-257" vertex="1">
          <mxGeometry width="42" height="30" as="geometry">
            <mxRectangle width="42" height="30" as="alternateBounds" />
          </mxGeometry>
        </mxCell>
        <mxCell id="qfV262I-aldNIOLawlQ2-259" value="CountryID" style="shape=partialRectangle;html=1;whiteSpace=wrap;connectable=0;fillColor=none;top=0;left=0;bottom=0;right=0;align=left;spacingLeft=6;overflow=hidden;strokeColor=inherit;fontSize=16;" parent="qfV262I-aldNIOLawlQ2-257" vertex="1">
          <mxGeometry x="42" width="138" height="30" as="geometry">
            <mxRectangle width="138" height="30" as="alternateBounds" />
          </mxGeometry>
        </mxCell>
        <mxCell id="qfV262I-aldNIOLawlQ2-260" value="" style="shape=tableRow;horizontal=0;startSize=0;swimlaneHead=0;swimlaneBody=0;top=0;left=0;bottom=0;right=0;collapsible=0;dropTarget=0;fillColor=none;points=[[0,0.5],[1,0.5]];portConstraint=eastwest;strokeColor=inherit;fontSize=16;" parent="qfV262I-aldNIOLawlQ2-256" vertex="1">
          <mxGeometry y="60" width="180" height="30" as="geometry" />
        </mxCell>
        <mxCell id="qfV262I-aldNIOLawlQ2-261" value="" style="shape=partialRectangle;html=1;whiteSpace=wrap;connectable=0;fillColor=none;top=0;left=0;bottom=0;right=0;overflow=hidden;strokeColor=inherit;fontSize=16;" parent="qfV262I-aldNIOLawlQ2-260" vertex="1">
          <mxGeometry width="42" height="30" as="geometry">
            <mxRectangle width="42" height="30" as="alternateBounds" />
          </mxGeometry>
        </mxCell>
        <mxCell id="qfV262I-aldNIOLawlQ2-262" value="CountryName" style="shape=partialRectangle;html=1;whiteSpace=wrap;connectable=0;fillColor=none;top=0;left=0;bottom=0;right=0;align=left;spacingLeft=6;overflow=hidden;strokeColor=inherit;fontSize=16;" parent="qfV262I-aldNIOLawlQ2-260" vertex="1">
          <mxGeometry x="42" width="138" height="30" as="geometry">
            <mxRectangle width="138" height="30" as="alternateBounds" />
          </mxGeometry>
        </mxCell>
        <mxCell id="qfV262I-aldNIOLawlQ2-272" value="TestAppointments" style="shape=table;startSize=30;container=1;collapsible=0;childLayout=tableLayout;fixedRows=1;rowLines=0;fontStyle=0;strokeColor=default;fontSize=16;" parent="1" vertex="1">
          <mxGeometry x="570" y="695" width="309.9999999999991" height="240" as="geometry" />
        </mxCell>
        <mxCell id="qfV262I-aldNIOLawlQ2-273" value="" style="shape=tableRow;horizontal=0;startSize=0;swimlaneHead=0;swimlaneBody=0;top=0;left=0;bottom=0;right=0;collapsible=0;dropTarget=0;fillColor=none;points=[[0,0.5],[1,0.5]];portConstraint=eastwest;strokeColor=inherit;fontSize=16;" parent="qfV262I-aldNIOLawlQ2-272" vertex="1">
          <mxGeometry y="30" width="309.9999999999991" height="30" as="geometry" />
        </mxCell>
        <mxCell id="qfV262I-aldNIOLawlQ2-274" value="PK" style="shape=partialRectangle;html=1;whiteSpace=wrap;connectable=0;fillColor=none;top=0;left=0;bottom=0;right=0;overflow=hidden;pointerEvents=1;strokeColor=inherit;fontSize=16;" parent="qfV262I-aldNIOLawlQ2-273" vertex="1">
          <mxGeometry width="44" height="30" as="geometry">
            <mxRectangle width="44" height="30" as="alternateBounds" />
          </mxGeometry>
        </mxCell>
        <mxCell id="qfV262I-aldNIOLawlQ2-275" value="TestAppointmentID" style="shape=partialRectangle;html=1;whiteSpace=wrap;connectable=0;fillColor=none;top=0;left=0;bottom=0;right=0;align=left;spacingLeft=6;overflow=hidden;strokeColor=inherit;fontSize=16;" parent="qfV262I-aldNIOLawlQ2-273" vertex="1">
          <mxGeometry x="44" width="266" height="30" as="geometry">
            <mxRectangle width="266" height="30" as="alternateBounds" />
          </mxGeometry>
        </mxCell>
        <mxCell id="qfV262I-aldNIOLawlQ2-276" value="" style="shape=tableRow;horizontal=0;startSize=0;swimlaneHead=0;swimlaneBody=0;top=0;left=0;bottom=0;right=0;collapsible=0;dropTarget=0;fillColor=none;points=[[0,0.5],[1,0.5]];portConstraint=eastwest;strokeColor=inherit;fontSize=16;" parent="qfV262I-aldNIOLawlQ2-272" vertex="1">
          <mxGeometry y="60" width="309.9999999999991" height="30" as="geometry" />
        </mxCell>
        <mxCell id="qfV262I-aldNIOLawlQ2-277" value="FK" style="shape=partialRectangle;html=1;whiteSpace=wrap;connectable=0;fillColor=none;top=0;left=0;bottom=0;right=0;overflow=hidden;strokeColor=inherit;fontSize=16;" parent="qfV262I-aldNIOLawlQ2-276" vertex="1">
          <mxGeometry width="44" height="30" as="geometry">
            <mxRectangle width="44" height="30" as="alternateBounds" />
          </mxGeometry>
        </mxCell>
        <mxCell id="qfV262I-aldNIOLawlQ2-278" value="TestTypeID" style="shape=partialRectangle;html=1;whiteSpace=wrap;connectable=0;fillColor=none;top=0;left=0;bottom=0;right=0;align=left;spacingLeft=6;overflow=hidden;strokeColor=inherit;fontSize=16;" parent="qfV262I-aldNIOLawlQ2-276" vertex="1">
          <mxGeometry x="44" width="266" height="30" as="geometry">
            <mxRectangle width="266" height="30" as="alternateBounds" />
          </mxGeometry>
        </mxCell>
        <mxCell id="qfV262I-aldNIOLawlQ2-279" value="" style="shape=tableRow;horizontal=0;startSize=0;swimlaneHead=0;swimlaneBody=0;top=0;left=0;bottom=0;right=0;collapsible=0;dropTarget=0;fillColor=none;points=[[0,0.5],[1,0.5]];portConstraint=eastwest;strokeColor=inherit;fontSize=16;" parent="qfV262I-aldNIOLawlQ2-272" vertex="1">
          <mxGeometry y="90" width="309.9999999999991" height="30" as="geometry" />
        </mxCell>
        <mxCell id="qfV262I-aldNIOLawlQ2-280" value="FK" style="shape=partialRectangle;html=1;whiteSpace=wrap;connectable=0;fillColor=none;top=0;left=0;bottom=0;right=0;overflow=hidden;strokeColor=inherit;fontSize=16;" parent="qfV262I-aldNIOLawlQ2-279" vertex="1">
          <mxGeometry width="44" height="30" as="geometry">
            <mxRectangle width="44" height="30" as="alternateBounds" />
          </mxGeometry>
        </mxCell>
        <mxCell id="qfV262I-aldNIOLawlQ2-281" value="LocalDrivingLicenseApplicationID" style="shape=partialRectangle;html=1;whiteSpace=wrap;connectable=0;fillColor=none;top=0;left=0;bottom=0;right=0;align=left;spacingLeft=6;overflow=hidden;strokeColor=inherit;fontSize=16;" parent="qfV262I-aldNIOLawlQ2-279" vertex="1">
          <mxGeometry x="44" width="266" height="30" as="geometry">
            <mxRectangle width="266" height="30" as="alternateBounds" />
          </mxGeometry>
        </mxCell>
        <mxCell id="qfV262I-aldNIOLawlQ2-282" value="" style="shape=tableRow;horizontal=0;startSize=0;swimlaneHead=0;swimlaneBody=0;top=0;left=0;bottom=0;right=0;collapsible=0;dropTarget=0;fillColor=none;points=[[0,0.5],[1,0.5]];portConstraint=eastwest;strokeColor=inherit;fontSize=16;" parent="qfV262I-aldNIOLawlQ2-272" vertex="1">
          <mxGeometry y="120" width="309.9999999999991" height="30" as="geometry" />
        </mxCell>
        <mxCell id="qfV262I-aldNIOLawlQ2-283" value="" style="shape=partialRectangle;html=1;whiteSpace=wrap;connectable=0;fillColor=none;top=0;left=0;bottom=0;right=0;overflow=hidden;strokeColor=inherit;fontSize=16;" parent="qfV262I-aldNIOLawlQ2-282" vertex="1">
          <mxGeometry width="44" height="30" as="geometry">
            <mxRectangle width="44" height="30" as="alternateBounds" />
          </mxGeometry>
        </mxCell>
        <mxCell id="qfV262I-aldNIOLawlQ2-284" value="AppointmentDate" style="shape=partialRectangle;html=1;whiteSpace=wrap;connectable=0;fillColor=none;top=0;left=0;bottom=0;right=0;align=left;spacingLeft=6;overflow=hidden;strokeColor=inherit;fontSize=16;" parent="qfV262I-aldNIOLawlQ2-282" vertex="1">
          <mxGeometry x="44" width="266" height="30" as="geometry">
            <mxRectangle width="266" height="30" as="alternateBounds" />
          </mxGeometry>
        </mxCell>
        <mxCell id="qfV262I-aldNIOLawlQ2-285" value="" style="shape=tableRow;horizontal=0;startSize=0;swimlaneHead=0;swimlaneBody=0;top=0;left=0;bottom=0;right=0;collapsible=0;dropTarget=0;fillColor=none;points=[[0,0.5],[1,0.5]];portConstraint=eastwest;strokeColor=inherit;fontSize=16;" parent="qfV262I-aldNIOLawlQ2-272" vertex="1">
          <mxGeometry y="150" width="309.9999999999991" height="30" as="geometry" />
        </mxCell>
        <mxCell id="qfV262I-aldNIOLawlQ2-286" value="" style="shape=partialRectangle;html=1;whiteSpace=wrap;connectable=0;fillColor=none;top=0;left=0;bottom=0;right=0;overflow=hidden;strokeColor=inherit;fontSize=16;" parent="qfV262I-aldNIOLawlQ2-285" vertex="1">
          <mxGeometry width="44" height="30" as="geometry">
            <mxRectangle width="44" height="30" as="alternateBounds" />
          </mxGeometry>
        </mxCell>
        <mxCell id="qfV262I-aldNIOLawlQ2-287" value="PaidFees" style="shape=partialRectangle;html=1;whiteSpace=wrap;connectable=0;fillColor=none;top=0;left=0;bottom=0;right=0;align=left;spacingLeft=6;overflow=hidden;strokeColor=inherit;fontSize=16;" parent="qfV262I-aldNIOLawlQ2-285" vertex="1">
          <mxGeometry x="44" width="266" height="30" as="geometry">
            <mxRectangle width="266" height="30" as="alternateBounds" />
          </mxGeometry>
        </mxCell>
        <mxCell id="qfV262I-aldNIOLawlQ2-288" value="" style="shape=tableRow;horizontal=0;startSize=0;swimlaneHead=0;swimlaneBody=0;top=0;left=0;bottom=0;right=0;collapsible=0;dropTarget=0;fillColor=none;points=[[0,0.5],[1,0.5]];portConstraint=eastwest;strokeColor=inherit;fontSize=16;" parent="qfV262I-aldNIOLawlQ2-272" vertex="1">
          <mxGeometry y="180" width="309.9999999999991" height="30" as="geometry" />
        </mxCell>
        <mxCell id="qfV262I-aldNIOLawlQ2-289" value="FK" style="shape=partialRectangle;html=1;whiteSpace=wrap;connectable=0;fillColor=none;top=0;left=0;bottom=0;right=0;overflow=hidden;strokeColor=inherit;fontSize=16;" parent="qfV262I-aldNIOLawlQ2-288" vertex="1">
          <mxGeometry width="44" height="30" as="geometry">
            <mxRectangle width="44" height="30" as="alternateBounds" />
          </mxGeometry>
        </mxCell>
        <mxCell id="qfV262I-aldNIOLawlQ2-290" value="CreatedByUserID" style="shape=partialRectangle;html=1;whiteSpace=wrap;connectable=0;fillColor=none;top=0;left=0;bottom=0;right=0;align=left;spacingLeft=6;overflow=hidden;strokeColor=inherit;fontSize=16;" parent="qfV262I-aldNIOLawlQ2-288" vertex="1">
          <mxGeometry x="44" width="266" height="30" as="geometry">
            <mxRectangle width="266" height="30" as="alternateBounds" />
          </mxGeometry>
        </mxCell>
        <mxCell id="qfV262I-aldNIOLawlQ2-291" value="" style="shape=tableRow;horizontal=0;startSize=0;swimlaneHead=0;swimlaneBody=0;top=0;left=0;bottom=0;right=0;collapsible=0;dropTarget=0;fillColor=none;points=[[0,0.5],[1,0.5]];portConstraint=eastwest;strokeColor=inherit;fontSize=16;" parent="qfV262I-aldNIOLawlQ2-272" vertex="1">
          <mxGeometry y="210" width="309.9999999999991" height="30" as="geometry" />
        </mxCell>
        <mxCell id="qfV262I-aldNIOLawlQ2-292" value="" style="shape=partialRectangle;html=1;whiteSpace=wrap;connectable=0;fillColor=none;top=0;left=0;bottom=0;right=0;overflow=hidden;strokeColor=inherit;fontSize=16;" parent="qfV262I-aldNIOLawlQ2-291" vertex="1">
          <mxGeometry width="44" height="30" as="geometry">
            <mxRectangle width="44" height="30" as="alternateBounds" />
          </mxGeometry>
        </mxCell>
        <mxCell id="qfV262I-aldNIOLawlQ2-293" value="IsLocked" style="shape=partialRectangle;html=1;whiteSpace=wrap;connectable=0;fillColor=none;top=0;left=0;bottom=0;right=0;align=left;spacingLeft=6;overflow=hidden;strokeColor=inherit;fontSize=16;" parent="qfV262I-aldNIOLawlQ2-291" vertex="1">
          <mxGeometry x="44" width="266" height="30" as="geometry">
            <mxRectangle width="266" height="30" as="alternateBounds" />
          </mxGeometry>
        </mxCell>
        <mxCell id="qfV262I-aldNIOLawlQ2-294" value="Drivers" style="shape=table;startSize=30;container=1;collapsible=0;childLayout=tableLayout;fixedRows=1;rowLines=0;fontStyle=0;strokeColor=default;fontSize=16;" parent="1" vertex="1">
          <mxGeometry x="-70" y="-470" width="190" height="150" as="geometry" />
        </mxCell>
        <mxCell id="qfV262I-aldNIOLawlQ2-295" value="" style="shape=tableRow;horizontal=0;startSize=0;swimlaneHead=0;swimlaneBody=0;top=0;left=0;bottom=0;right=0;collapsible=0;dropTarget=0;fillColor=none;points=[[0,0.5],[1,0.5]];portConstraint=eastwest;strokeColor=inherit;fontSize=16;" parent="qfV262I-aldNIOLawlQ2-294" vertex="1">
          <mxGeometry y="30" width="190" height="30" as="geometry" />
        </mxCell>
        <mxCell id="qfV262I-aldNIOLawlQ2-296" value="PK" style="shape=partialRectangle;html=1;whiteSpace=wrap;connectable=0;fillColor=none;top=0;left=0;bottom=0;right=0;overflow=hidden;pointerEvents=1;strokeColor=inherit;fontSize=16;" parent="qfV262I-aldNIOLawlQ2-295" vertex="1">
          <mxGeometry width="42" height="30" as="geometry">
            <mxRectangle width="42" height="30" as="alternateBounds" />
          </mxGeometry>
        </mxCell>
        <mxCell id="qfV262I-aldNIOLawlQ2-297" value="DriverID" style="shape=partialRectangle;html=1;whiteSpace=wrap;connectable=0;fillColor=none;top=0;left=0;bottom=0;right=0;align=left;spacingLeft=6;overflow=hidden;strokeColor=inherit;fontSize=16;" parent="qfV262I-aldNIOLawlQ2-295" vertex="1">
          <mxGeometry x="42" width="148" height="30" as="geometry">
            <mxRectangle width="148" height="30" as="alternateBounds" />
          </mxGeometry>
        </mxCell>
        <mxCell id="qfV262I-aldNIOLawlQ2-298" value="" style="shape=tableRow;horizontal=0;startSize=0;swimlaneHead=0;swimlaneBody=0;top=0;left=0;bottom=0;right=0;collapsible=0;dropTarget=0;fillColor=none;points=[[0,0.5],[1,0.5]];portConstraint=eastwest;strokeColor=inherit;fontSize=16;" parent="qfV262I-aldNIOLawlQ2-294" vertex="1">
          <mxGeometry y="60" width="190" height="30" as="geometry" />
        </mxCell>
        <mxCell id="qfV262I-aldNIOLawlQ2-299" value="FK" style="shape=partialRectangle;html=1;whiteSpace=wrap;connectable=0;fillColor=none;top=0;left=0;bottom=0;right=0;overflow=hidden;strokeColor=inherit;fontSize=16;" parent="qfV262I-aldNIOLawlQ2-298" vertex="1">
          <mxGeometry width="42" height="30" as="geometry">
            <mxRectangle width="42" height="30" as="alternateBounds" />
          </mxGeometry>
        </mxCell>
        <mxCell id="qfV262I-aldNIOLawlQ2-300" value="PersonID" style="shape=partialRectangle;html=1;whiteSpace=wrap;connectable=0;fillColor=none;top=0;left=0;bottom=0;right=0;align=left;spacingLeft=6;overflow=hidden;strokeColor=inherit;fontSize=16;" parent="qfV262I-aldNIOLawlQ2-298" vertex="1">
          <mxGeometry x="42" width="148" height="30" as="geometry">
            <mxRectangle width="148" height="30" as="alternateBounds" />
          </mxGeometry>
        </mxCell>
        <mxCell id="qfV262I-aldNIOLawlQ2-301" value="" style="shape=tableRow;horizontal=0;startSize=0;swimlaneHead=0;swimlaneBody=0;top=0;left=0;bottom=0;right=0;collapsible=0;dropTarget=0;fillColor=none;points=[[0,0.5],[1,0.5]];portConstraint=eastwest;strokeColor=inherit;fontSize=16;" parent="qfV262I-aldNIOLawlQ2-294" vertex="1">
          <mxGeometry y="90" width="190" height="30" as="geometry" />
        </mxCell>
        <mxCell id="qfV262I-aldNIOLawlQ2-302" value="" style="shape=partialRectangle;html=1;whiteSpace=wrap;connectable=0;fillColor=none;top=0;left=0;bottom=0;right=0;overflow=hidden;strokeColor=inherit;fontSize=16;" parent="qfV262I-aldNIOLawlQ2-301" vertex="1">
          <mxGeometry width="42" height="30" as="geometry">
            <mxRectangle width="42" height="30" as="alternateBounds" />
          </mxGeometry>
        </mxCell>
        <mxCell id="qfV262I-aldNIOLawlQ2-303" value="CreatedByUserID" style="shape=partialRectangle;html=1;whiteSpace=wrap;connectable=0;fillColor=none;top=0;left=0;bottom=0;right=0;align=left;spacingLeft=6;overflow=hidden;strokeColor=inherit;fontSize=16;" parent="qfV262I-aldNIOLawlQ2-301" vertex="1">
          <mxGeometry x="42" width="148" height="30" as="geometry">
            <mxRectangle width="148" height="30" as="alternateBounds" />
          </mxGeometry>
        </mxCell>
        <mxCell id="qfV262I-aldNIOLawlQ2-304" value="" style="shape=tableRow;horizontal=0;startSize=0;swimlaneHead=0;swimlaneBody=0;top=0;left=0;bottom=0;right=0;collapsible=0;dropTarget=0;fillColor=none;points=[[0,0.5],[1,0.5]];portConstraint=eastwest;strokeColor=inherit;fontSize=16;" parent="qfV262I-aldNIOLawlQ2-294" vertex="1">
          <mxGeometry y="120" width="190" height="30" as="geometry" />
        </mxCell>
        <mxCell id="qfV262I-aldNIOLawlQ2-305" value="" style="shape=partialRectangle;html=1;whiteSpace=wrap;connectable=0;fillColor=none;top=0;left=0;bottom=0;right=0;overflow=hidden;strokeColor=inherit;fontSize=16;" parent="qfV262I-aldNIOLawlQ2-304" vertex="1">
          <mxGeometry width="42" height="30" as="geometry">
            <mxRectangle width="42" height="30" as="alternateBounds" />
          </mxGeometry>
        </mxCell>
        <mxCell id="qfV262I-aldNIOLawlQ2-306" value="CreatedDate" style="shape=partialRectangle;html=1;whiteSpace=wrap;connectable=0;fillColor=none;top=0;left=0;bottom=0;right=0;align=left;spacingLeft=6;overflow=hidden;strokeColor=inherit;fontSize=16;" parent="qfV262I-aldNIOLawlQ2-304" vertex="1">
          <mxGeometry x="42" width="148" height="30" as="geometry">
            <mxRectangle width="148" height="30" as="alternateBounds" />
          </mxGeometry>
        </mxCell>
        <mxCell id="qfV262I-aldNIOLawlQ2-310" value="InternationalLicenses" style="shape=table;startSize=30;container=1;collapsible=0;childLayout=tableLayout;fixedRows=1;rowLines=0;fontStyle=0;strokeColor=default;fontSize=16;" parent="1" vertex="1">
          <mxGeometry x="-230" y="20" width="260" height="270" as="geometry" />
        </mxCell>
        <mxCell id="qfV262I-aldNIOLawlQ2-311" value="" style="shape=tableRow;horizontal=0;startSize=0;swimlaneHead=0;swimlaneBody=0;top=0;left=0;bottom=0;right=0;collapsible=0;dropTarget=0;fillColor=none;points=[[0,0.5],[1,0.5]];portConstraint=eastwest;strokeColor=inherit;fontSize=16;" parent="qfV262I-aldNIOLawlQ2-310" vertex="1">
          <mxGeometry y="30" width="260" height="30" as="geometry" />
        </mxCell>
        <mxCell id="qfV262I-aldNIOLawlQ2-312" value="PK" style="shape=partialRectangle;html=1;whiteSpace=wrap;connectable=0;fillColor=none;top=0;left=0;bottom=0;right=0;overflow=hidden;pointerEvents=1;strokeColor=inherit;fontSize=16;" parent="qfV262I-aldNIOLawlQ2-311" vertex="1">
          <mxGeometry width="46" height="30" as="geometry">
            <mxRectangle width="46" height="30" as="alternateBounds" />
          </mxGeometry>
        </mxCell>
        <mxCell id="qfV262I-aldNIOLawlQ2-313" value="&lt;span style=&quot;text-align: center; text-wrap-mode: nowrap;&quot;&gt;InternationalLicensesID&lt;/span&gt;" style="shape=partialRectangle;html=1;whiteSpace=wrap;connectable=0;fillColor=none;top=0;left=0;bottom=0;right=0;align=left;spacingLeft=6;overflow=hidden;strokeColor=inherit;fontSize=16;" parent="qfV262I-aldNIOLawlQ2-311" vertex="1">
          <mxGeometry x="46" width="214" height="30" as="geometry">
            <mxRectangle width="214" height="30" as="alternateBounds" />
          </mxGeometry>
        </mxCell>
        <mxCell id="qfV262I-aldNIOLawlQ2-314" value="" style="shape=tableRow;horizontal=0;startSize=0;swimlaneHead=0;swimlaneBody=0;top=0;left=0;bottom=0;right=0;collapsible=0;dropTarget=0;fillColor=none;points=[[0,0.5],[1,0.5]];portConstraint=eastwest;strokeColor=inherit;fontSize=16;" parent="qfV262I-aldNIOLawlQ2-310" vertex="1">
          <mxGeometry y="60" width="260" height="30" as="geometry" />
        </mxCell>
        <mxCell id="qfV262I-aldNIOLawlQ2-315" value="FK" style="shape=partialRectangle;html=1;whiteSpace=wrap;connectable=0;fillColor=none;top=0;left=0;bottom=0;right=0;overflow=hidden;strokeColor=inherit;fontSize=16;" parent="qfV262I-aldNIOLawlQ2-314" vertex="1">
          <mxGeometry width="46" height="30" as="geometry">
            <mxRectangle width="46" height="30" as="alternateBounds" />
          </mxGeometry>
        </mxCell>
        <mxCell id="qfV262I-aldNIOLawlQ2-316" value="ApplicationID" style="shape=partialRectangle;html=1;whiteSpace=wrap;connectable=0;fillColor=none;top=0;left=0;bottom=0;right=0;align=left;spacingLeft=6;overflow=hidden;strokeColor=inherit;fontSize=16;" parent="qfV262I-aldNIOLawlQ2-314" vertex="1">
          <mxGeometry x="46" width="214" height="30" as="geometry">
            <mxRectangle width="214" height="30" as="alternateBounds" />
          </mxGeometry>
        </mxCell>
        <mxCell id="qfV262I-aldNIOLawlQ2-317" value="" style="shape=tableRow;horizontal=0;startSize=0;swimlaneHead=0;swimlaneBody=0;top=0;left=0;bottom=0;right=0;collapsible=0;dropTarget=0;fillColor=none;points=[[0,0.5],[1,0.5]];portConstraint=eastwest;strokeColor=inherit;fontSize=16;" parent="qfV262I-aldNIOLawlQ2-310" vertex="1">
          <mxGeometry y="90" width="260" height="30" as="geometry" />
        </mxCell>
        <mxCell id="qfV262I-aldNIOLawlQ2-318" value="FK" style="shape=partialRectangle;html=1;whiteSpace=wrap;connectable=0;fillColor=none;top=0;left=0;bottom=0;right=0;overflow=hidden;strokeColor=inherit;fontSize=16;" parent="qfV262I-aldNIOLawlQ2-317" vertex="1">
          <mxGeometry width="46" height="30" as="geometry">
            <mxRectangle width="46" height="30" as="alternateBounds" />
          </mxGeometry>
        </mxCell>
        <mxCell id="qfV262I-aldNIOLawlQ2-319" value="&lt;div&gt;DriverID&lt;/div&gt;" style="shape=partialRectangle;html=1;whiteSpace=wrap;connectable=0;fillColor=none;top=0;left=0;bottom=0;right=0;align=left;spacingLeft=6;overflow=hidden;strokeColor=inherit;fontSize=16;" parent="qfV262I-aldNIOLawlQ2-317" vertex="1">
          <mxGeometry x="46" width="214" height="30" as="geometry">
            <mxRectangle width="214" height="30" as="alternateBounds" />
          </mxGeometry>
        </mxCell>
        <mxCell id="qfV262I-aldNIOLawlQ2-320" value="" style="shape=tableRow;horizontal=0;startSize=0;swimlaneHead=0;swimlaneBody=0;top=0;left=0;bottom=0;right=0;collapsible=0;dropTarget=0;fillColor=none;points=[[0,0.5],[1,0.5]];portConstraint=eastwest;strokeColor=inherit;fontSize=16;" parent="qfV262I-aldNIOLawlQ2-310" vertex="1">
          <mxGeometry y="120" width="260" height="30" as="geometry" />
        </mxCell>
        <mxCell id="qfV262I-aldNIOLawlQ2-321" value="FK" style="shape=partialRectangle;html=1;whiteSpace=wrap;connectable=0;fillColor=none;top=0;left=0;bottom=0;right=0;overflow=hidden;strokeColor=inherit;fontSize=16;" parent="qfV262I-aldNIOLawlQ2-320" vertex="1">
          <mxGeometry width="46" height="30" as="geometry">
            <mxRectangle width="46" height="30" as="alternateBounds" />
          </mxGeometry>
        </mxCell>
        <mxCell id="qfV262I-aldNIOLawlQ2-322" value="IssuedUsingLocalLicenseID" style="shape=partialRectangle;html=1;whiteSpace=wrap;connectable=0;fillColor=none;top=0;left=0;bottom=0;right=0;align=left;spacingLeft=6;overflow=hidden;strokeColor=inherit;fontSize=16;" parent="qfV262I-aldNIOLawlQ2-320" vertex="1">
          <mxGeometry x="46" width="214" height="30" as="geometry">
            <mxRectangle width="214" height="30" as="alternateBounds" />
          </mxGeometry>
        </mxCell>
        <mxCell id="qfV262I-aldNIOLawlQ2-323" value="" style="shape=tableRow;horizontal=0;startSize=0;swimlaneHead=0;swimlaneBody=0;top=0;left=0;bottom=0;right=0;collapsible=0;dropTarget=0;fillColor=none;points=[[0,0.5],[1,0.5]];portConstraint=eastwest;strokeColor=inherit;fontSize=16;" parent="qfV262I-aldNIOLawlQ2-310" vertex="1">
          <mxGeometry y="150" width="260" height="30" as="geometry" />
        </mxCell>
        <mxCell id="qfV262I-aldNIOLawlQ2-324" value="" style="shape=partialRectangle;html=1;whiteSpace=wrap;connectable=0;fillColor=none;top=0;left=0;bottom=0;right=0;overflow=hidden;strokeColor=inherit;fontSize=16;" parent="qfV262I-aldNIOLawlQ2-323" vertex="1">
          <mxGeometry width="46" height="30" as="geometry">
            <mxRectangle width="46" height="30" as="alternateBounds" />
          </mxGeometry>
        </mxCell>
        <mxCell id="qfV262I-aldNIOLawlQ2-325" value="IssueDate" style="shape=partialRectangle;html=1;whiteSpace=wrap;connectable=0;fillColor=none;top=0;left=0;bottom=0;right=0;align=left;spacingLeft=6;overflow=hidden;strokeColor=inherit;fontSize=16;" parent="qfV262I-aldNIOLawlQ2-323" vertex="1">
          <mxGeometry x="46" width="214" height="30" as="geometry">
            <mxRectangle width="214" height="30" as="alternateBounds" />
          </mxGeometry>
        </mxCell>
        <mxCell id="qfV262I-aldNIOLawlQ2-326" value="" style="shape=tableRow;horizontal=0;startSize=0;swimlaneHead=0;swimlaneBody=0;top=0;left=0;bottom=0;right=0;collapsible=0;dropTarget=0;fillColor=none;points=[[0,0.5],[1,0.5]];portConstraint=eastwest;strokeColor=inherit;fontSize=16;" parent="qfV262I-aldNIOLawlQ2-310" vertex="1">
          <mxGeometry y="180" width="260" height="30" as="geometry" />
        </mxCell>
        <mxCell id="qfV262I-aldNIOLawlQ2-327" value="" style="shape=partialRectangle;html=1;whiteSpace=wrap;connectable=0;fillColor=none;top=0;left=0;bottom=0;right=0;overflow=hidden;strokeColor=inherit;fontSize=16;" parent="qfV262I-aldNIOLawlQ2-326" vertex="1">
          <mxGeometry width="46" height="30" as="geometry">
            <mxRectangle width="46" height="30" as="alternateBounds" />
          </mxGeometry>
        </mxCell>
        <mxCell id="qfV262I-aldNIOLawlQ2-328" value="ExpirationDate" style="shape=partialRectangle;html=1;whiteSpace=wrap;connectable=0;fillColor=none;top=0;left=0;bottom=0;right=0;align=left;spacingLeft=6;overflow=hidden;strokeColor=inherit;fontSize=16;" parent="qfV262I-aldNIOLawlQ2-326" vertex="1">
          <mxGeometry x="46" width="214" height="30" as="geometry">
            <mxRectangle width="214" height="30" as="alternateBounds" />
          </mxGeometry>
        </mxCell>
        <mxCell id="qfV262I-aldNIOLawlQ2-330" value="" style="shape=tableRow;horizontal=0;startSize=0;swimlaneHead=0;swimlaneBody=0;top=0;left=0;bottom=0;right=0;collapsible=0;dropTarget=0;fillColor=none;points=[[0,0.5],[1,0.5]];portConstraint=eastwest;strokeColor=inherit;fontSize=16;" parent="qfV262I-aldNIOLawlQ2-310" vertex="1">
          <mxGeometry y="210" width="260" height="30" as="geometry" />
        </mxCell>
        <mxCell id="qfV262I-aldNIOLawlQ2-331" value="" style="shape=partialRectangle;html=1;whiteSpace=wrap;connectable=0;fillColor=none;top=0;left=0;bottom=0;right=0;overflow=hidden;strokeColor=inherit;fontSize=16;" parent="qfV262I-aldNIOLawlQ2-330" vertex="1">
          <mxGeometry width="46" height="30" as="geometry">
            <mxRectangle width="46" height="30" as="alternateBounds" />
          </mxGeometry>
        </mxCell>
        <mxCell id="qfV262I-aldNIOLawlQ2-332" value="IsActive" style="shape=partialRectangle;html=1;whiteSpace=wrap;connectable=0;fillColor=none;top=0;left=0;bottom=0;right=0;align=left;spacingLeft=6;overflow=hidden;strokeColor=inherit;fontSize=16;" parent="qfV262I-aldNIOLawlQ2-330" vertex="1">
          <mxGeometry x="46" width="214" height="30" as="geometry">
            <mxRectangle width="214" height="30" as="alternateBounds" />
          </mxGeometry>
        </mxCell>
        <mxCell id="qfV262I-aldNIOLawlQ2-333" value="" style="shape=tableRow;horizontal=0;startSize=0;swimlaneHead=0;swimlaneBody=0;top=0;left=0;bottom=0;right=0;collapsible=0;dropTarget=0;fillColor=none;points=[[0,0.5],[1,0.5]];portConstraint=eastwest;strokeColor=inherit;fontSize=16;" parent="qfV262I-aldNIOLawlQ2-310" vertex="1">
          <mxGeometry y="240" width="260" height="30" as="geometry" />
        </mxCell>
        <mxCell id="qfV262I-aldNIOLawlQ2-334" value="FK" style="shape=partialRectangle;html=1;whiteSpace=wrap;connectable=0;fillColor=none;top=0;left=0;bottom=0;right=0;overflow=hidden;strokeColor=inherit;fontSize=16;" parent="qfV262I-aldNIOLawlQ2-333" vertex="1">
          <mxGeometry width="46" height="30" as="geometry">
            <mxRectangle width="46" height="30" as="alternateBounds" />
          </mxGeometry>
        </mxCell>
        <mxCell id="qfV262I-aldNIOLawlQ2-335" value="CreatedByUserID" style="shape=partialRectangle;html=1;whiteSpace=wrap;connectable=0;fillColor=none;top=0;left=0;bottom=0;right=0;align=left;spacingLeft=6;overflow=hidden;strokeColor=inherit;fontSize=16;" parent="qfV262I-aldNIOLawlQ2-333" vertex="1">
          <mxGeometry x="46" width="214" height="30" as="geometry">
            <mxRectangle width="214" height="30" as="alternateBounds" />
          </mxGeometry>
        </mxCell>
        <mxCell id="qfV262I-aldNIOLawlQ2-336" value="Applications" style="shape=table;startSize=30;container=1;collapsible=0;childLayout=tableLayout;fixedRows=1;rowLines=0;fontStyle=0;strokeColor=default;fontSize=16;" parent="1" vertex="1">
          <mxGeometry x="-360" y="440" width="210" height="270" as="geometry" />
        </mxCell>
        <mxCell id="qfV262I-aldNIOLawlQ2-337" value="" style="shape=tableRow;horizontal=0;startSize=0;swimlaneHead=0;swimlaneBody=0;top=0;left=0;bottom=0;right=0;collapsible=0;dropTarget=0;fillColor=none;points=[[0,0.5],[1,0.5]];portConstraint=eastwest;strokeColor=inherit;fontSize=16;" parent="qfV262I-aldNIOLawlQ2-336" vertex="1">
          <mxGeometry y="30" width="210" height="30" as="geometry" />
        </mxCell>
        <mxCell id="qfV262I-aldNIOLawlQ2-338" value="PK" style="shape=partialRectangle;html=1;whiteSpace=wrap;connectable=0;fillColor=none;top=0;left=0;bottom=0;right=0;overflow=hidden;pointerEvents=1;strokeColor=inherit;fontSize=16;" parent="qfV262I-aldNIOLawlQ2-337" vertex="1">
          <mxGeometry width="46" height="30" as="geometry">
            <mxRectangle width="46" height="30" as="alternateBounds" />
          </mxGeometry>
        </mxCell>
        <mxCell id="qfV262I-aldNIOLawlQ2-339" value="ApplicationID" style="shape=partialRectangle;html=1;whiteSpace=wrap;connectable=0;fillColor=none;top=0;left=0;bottom=0;right=0;align=left;spacingLeft=6;overflow=hidden;strokeColor=inherit;fontSize=16;" parent="qfV262I-aldNIOLawlQ2-337" vertex="1">
          <mxGeometry x="46" width="164" height="30" as="geometry">
            <mxRectangle width="164" height="30" as="alternateBounds" />
          </mxGeometry>
        </mxCell>
        <mxCell id="qfV262I-aldNIOLawlQ2-340" value="" style="shape=tableRow;horizontal=0;startSize=0;swimlaneHead=0;swimlaneBody=0;top=0;left=0;bottom=0;right=0;collapsible=0;dropTarget=0;fillColor=none;points=[[0,0.5],[1,0.5]];portConstraint=eastwest;strokeColor=inherit;fontSize=16;" parent="qfV262I-aldNIOLawlQ2-336" vertex="1">
          <mxGeometry y="60" width="210" height="30" as="geometry" />
        </mxCell>
        <mxCell id="qfV262I-aldNIOLawlQ2-341" value="FK" style="shape=partialRectangle;html=1;whiteSpace=wrap;connectable=0;fillColor=none;top=0;left=0;bottom=0;right=0;overflow=hidden;strokeColor=inherit;fontSize=16;" parent="qfV262I-aldNIOLawlQ2-340" vertex="1">
          <mxGeometry width="46" height="30" as="geometry">
            <mxRectangle width="46" height="30" as="alternateBounds" />
          </mxGeometry>
        </mxCell>
        <mxCell id="qfV262I-aldNIOLawlQ2-342" value="ApplicationPersonID" style="shape=partialRectangle;html=1;whiteSpace=wrap;connectable=0;fillColor=none;top=0;left=0;bottom=0;right=0;align=left;spacingLeft=6;overflow=hidden;strokeColor=inherit;fontSize=16;" parent="qfV262I-aldNIOLawlQ2-340" vertex="1">
          <mxGeometry x="46" width="164" height="30" as="geometry">
            <mxRectangle width="164" height="30" as="alternateBounds" />
          </mxGeometry>
        </mxCell>
        <mxCell id="qfV262I-aldNIOLawlQ2-343" value="" style="shape=tableRow;horizontal=0;startSize=0;swimlaneHead=0;swimlaneBody=0;top=0;left=0;bottom=0;right=0;collapsible=0;dropTarget=0;fillColor=none;points=[[0,0.5],[1,0.5]];portConstraint=eastwest;strokeColor=inherit;fontSize=16;" parent="qfV262I-aldNIOLawlQ2-336" vertex="1">
          <mxGeometry y="90" width="210" height="30" as="geometry" />
        </mxCell>
        <mxCell id="qfV262I-aldNIOLawlQ2-344" value="" style="shape=partialRectangle;html=1;whiteSpace=wrap;connectable=0;fillColor=none;top=0;left=0;bottom=0;right=0;overflow=hidden;strokeColor=inherit;fontSize=16;" parent="qfV262I-aldNIOLawlQ2-343" vertex="1">
          <mxGeometry width="46" height="30" as="geometry">
            <mxRectangle width="46" height="30" as="alternateBounds" />
          </mxGeometry>
        </mxCell>
        <mxCell id="qfV262I-aldNIOLawlQ2-345" value="&lt;div&gt;ApplicationDate&lt;/div&gt;" style="shape=partialRectangle;html=1;whiteSpace=wrap;connectable=0;fillColor=none;top=0;left=0;bottom=0;right=0;align=left;spacingLeft=6;overflow=hidden;strokeColor=inherit;fontSize=16;" parent="qfV262I-aldNIOLawlQ2-343" vertex="1">
          <mxGeometry x="46" width="164" height="30" as="geometry">
            <mxRectangle width="164" height="30" as="alternateBounds" />
          </mxGeometry>
        </mxCell>
        <mxCell id="qfV262I-aldNIOLawlQ2-346" value="" style="shape=tableRow;horizontal=0;startSize=0;swimlaneHead=0;swimlaneBody=0;top=0;left=0;bottom=0;right=0;collapsible=0;dropTarget=0;fillColor=none;points=[[0,0.5],[1,0.5]];portConstraint=eastwest;strokeColor=inherit;fontSize=16;" parent="qfV262I-aldNIOLawlQ2-336" vertex="1">
          <mxGeometry y="120" width="210" height="30" as="geometry" />
        </mxCell>
        <mxCell id="qfV262I-aldNIOLawlQ2-347" value="FK" style="shape=partialRectangle;html=1;whiteSpace=wrap;connectable=0;fillColor=none;top=0;left=0;bottom=0;right=0;overflow=hidden;strokeColor=inherit;fontSize=16;" parent="qfV262I-aldNIOLawlQ2-346" vertex="1">
          <mxGeometry width="46" height="30" as="geometry">
            <mxRectangle width="46" height="30" as="alternateBounds" />
          </mxGeometry>
        </mxCell>
        <mxCell id="qfV262I-aldNIOLawlQ2-348" value="ApplicationTypeID" style="shape=partialRectangle;html=1;whiteSpace=wrap;connectable=0;fillColor=none;top=0;left=0;bottom=0;right=0;align=left;spacingLeft=6;overflow=hidden;strokeColor=inherit;fontSize=16;" parent="qfV262I-aldNIOLawlQ2-346" vertex="1">
          <mxGeometry x="46" width="164" height="30" as="geometry">
            <mxRectangle width="164" height="30" as="alternateBounds" />
          </mxGeometry>
        </mxCell>
        <mxCell id="qfV262I-aldNIOLawlQ2-349" value="" style="shape=tableRow;horizontal=0;startSize=0;swimlaneHead=0;swimlaneBody=0;top=0;left=0;bottom=0;right=0;collapsible=0;dropTarget=0;fillColor=none;points=[[0,0.5],[1,0.5]];portConstraint=eastwest;strokeColor=inherit;fontSize=16;" parent="qfV262I-aldNIOLawlQ2-336" vertex="1">
          <mxGeometry y="150" width="210" height="30" as="geometry" />
        </mxCell>
        <mxCell id="qfV262I-aldNIOLawlQ2-350" value="" style="shape=partialRectangle;html=1;whiteSpace=wrap;connectable=0;fillColor=none;top=0;left=0;bottom=0;right=0;overflow=hidden;strokeColor=inherit;fontSize=16;" parent="qfV262I-aldNIOLawlQ2-349" vertex="1">
          <mxGeometry width="46" height="30" as="geometry">
            <mxRectangle width="46" height="30" as="alternateBounds" />
          </mxGeometry>
        </mxCell>
        <mxCell id="qfV262I-aldNIOLawlQ2-351" value="ApplicationStatus" style="shape=partialRectangle;html=1;whiteSpace=wrap;connectable=0;fillColor=none;top=0;left=0;bottom=0;right=0;align=left;spacingLeft=6;overflow=hidden;strokeColor=inherit;fontSize=16;" parent="qfV262I-aldNIOLawlQ2-349" vertex="1">
          <mxGeometry x="46" width="164" height="30" as="geometry">
            <mxRectangle width="164" height="30" as="alternateBounds" />
          </mxGeometry>
        </mxCell>
        <mxCell id="qfV262I-aldNIOLawlQ2-352" value="" style="shape=tableRow;horizontal=0;startSize=0;swimlaneHead=0;swimlaneBody=0;top=0;left=0;bottom=0;right=0;collapsible=0;dropTarget=0;fillColor=none;points=[[0,0.5],[1,0.5]];portConstraint=eastwest;strokeColor=inherit;fontSize=16;" parent="qfV262I-aldNIOLawlQ2-336" vertex="1">
          <mxGeometry y="180" width="210" height="30" as="geometry" />
        </mxCell>
        <mxCell id="qfV262I-aldNIOLawlQ2-353" value="" style="shape=partialRectangle;html=1;whiteSpace=wrap;connectable=0;fillColor=none;top=0;left=0;bottom=0;right=0;overflow=hidden;strokeColor=inherit;fontSize=16;" parent="qfV262I-aldNIOLawlQ2-352" vertex="1">
          <mxGeometry width="46" height="30" as="geometry">
            <mxRectangle width="46" height="30" as="alternateBounds" />
          </mxGeometry>
        </mxCell>
        <mxCell id="qfV262I-aldNIOLawlQ2-354" value="LastStatusDate" style="shape=partialRectangle;html=1;whiteSpace=wrap;connectable=0;fillColor=none;top=0;left=0;bottom=0;right=0;align=left;spacingLeft=6;overflow=hidden;strokeColor=inherit;fontSize=16;" parent="qfV262I-aldNIOLawlQ2-352" vertex="1">
          <mxGeometry x="46" width="164" height="30" as="geometry">
            <mxRectangle width="164" height="30" as="alternateBounds" />
          </mxGeometry>
        </mxCell>
        <mxCell id="qfV262I-aldNIOLawlQ2-355" value="" style="shape=tableRow;horizontal=0;startSize=0;swimlaneHead=0;swimlaneBody=0;top=0;left=0;bottom=0;right=0;collapsible=0;dropTarget=0;fillColor=none;points=[[0,0.5],[1,0.5]];portConstraint=eastwest;strokeColor=inherit;fontSize=16;" parent="qfV262I-aldNIOLawlQ2-336" vertex="1">
          <mxGeometry y="210" width="210" height="30" as="geometry" />
        </mxCell>
        <mxCell id="qfV262I-aldNIOLawlQ2-356" value="FK" style="shape=partialRectangle;html=1;whiteSpace=wrap;connectable=0;fillColor=none;top=0;left=0;bottom=0;right=0;overflow=hidden;strokeColor=inherit;fontSize=16;" parent="qfV262I-aldNIOLawlQ2-355" vertex="1">
          <mxGeometry width="46" height="30" as="geometry">
            <mxRectangle width="46" height="30" as="alternateBounds" />
          </mxGeometry>
        </mxCell>
        <mxCell id="qfV262I-aldNIOLawlQ2-357" value="PaidFees" style="shape=partialRectangle;html=1;whiteSpace=wrap;connectable=0;fillColor=none;top=0;left=0;bottom=0;right=0;align=left;spacingLeft=6;overflow=hidden;strokeColor=inherit;fontSize=16;" parent="qfV262I-aldNIOLawlQ2-355" vertex="1">
          <mxGeometry x="46" width="164" height="30" as="geometry">
            <mxRectangle width="164" height="30" as="alternateBounds" />
          </mxGeometry>
        </mxCell>
        <mxCell id="qfV262I-aldNIOLawlQ2-358" value="" style="shape=tableRow;horizontal=0;startSize=0;swimlaneHead=0;swimlaneBody=0;top=0;left=0;bottom=0;right=0;collapsible=0;dropTarget=0;fillColor=none;points=[[0,0.5],[1,0.5]];portConstraint=eastwest;strokeColor=inherit;fontSize=16;" parent="qfV262I-aldNIOLawlQ2-336" vertex="1">
          <mxGeometry y="240" width="210" height="30" as="geometry" />
        </mxCell>
        <mxCell id="qfV262I-aldNIOLawlQ2-359" value="FK" style="shape=partialRectangle;html=1;whiteSpace=wrap;connectable=0;fillColor=none;top=0;left=0;bottom=0;right=0;overflow=hidden;strokeColor=inherit;fontSize=16;" parent="qfV262I-aldNIOLawlQ2-358" vertex="1">
          <mxGeometry width="46" height="30" as="geometry">
            <mxRectangle width="46" height="30" as="alternateBounds" />
          </mxGeometry>
        </mxCell>
        <mxCell id="qfV262I-aldNIOLawlQ2-360" value="CreatedByUserID" style="shape=partialRectangle;html=1;whiteSpace=wrap;connectable=0;fillColor=none;top=0;left=0;bottom=0;right=0;align=left;spacingLeft=6;overflow=hidden;strokeColor=inherit;fontSize=16;" parent="qfV262I-aldNIOLawlQ2-358" vertex="1">
          <mxGeometry x="46" width="164" height="30" as="geometry">
            <mxRectangle width="164" height="30" as="alternateBounds" />
          </mxGeometry>
        </mxCell>
        <mxCell id="qfV262I-aldNIOLawlQ2-361" value="ApplicationTypes" style="shape=table;startSize=30;container=1;collapsible=0;childLayout=tableLayout;fixedRows=1;rowLines=0;fontStyle=0;strokeColor=default;fontSize=16;" parent="1" vertex="1">
          <mxGeometry x="-570" y="800" width="220" height="120" as="geometry" />
        </mxCell>
        <mxCell id="qfV262I-aldNIOLawlQ2-362" value="" style="shape=tableRow;horizontal=0;startSize=0;swimlaneHead=0;swimlaneBody=0;top=0;left=0;bottom=0;right=0;collapsible=0;dropTarget=0;fillColor=none;points=[[0,0.5],[1,0.5]];portConstraint=eastwest;strokeColor=inherit;fontSize=16;" parent="qfV262I-aldNIOLawlQ2-361" vertex="1">
          <mxGeometry y="30" width="220" height="30" as="geometry" />
        </mxCell>
        <mxCell id="qfV262I-aldNIOLawlQ2-363" value="PK" style="shape=partialRectangle;html=1;whiteSpace=wrap;connectable=0;fillColor=none;top=0;left=0;bottom=0;right=0;overflow=hidden;pointerEvents=1;strokeColor=inherit;fontSize=16;" parent="qfV262I-aldNIOLawlQ2-362" vertex="1">
          <mxGeometry width="42" height="30" as="geometry">
            <mxRectangle width="42" height="30" as="alternateBounds" />
          </mxGeometry>
        </mxCell>
        <mxCell id="qfV262I-aldNIOLawlQ2-364" value="ApplicationTypeID" style="shape=partialRectangle;html=1;whiteSpace=wrap;connectable=0;fillColor=none;top=0;left=0;bottom=0;right=0;align=left;spacingLeft=6;overflow=hidden;strokeColor=inherit;fontSize=16;" parent="qfV262I-aldNIOLawlQ2-362" vertex="1">
          <mxGeometry x="42" width="178" height="30" as="geometry">
            <mxRectangle width="178" height="30" as="alternateBounds" />
          </mxGeometry>
        </mxCell>
        <mxCell id="qfV262I-aldNIOLawlQ2-365" value="" style="shape=tableRow;horizontal=0;startSize=0;swimlaneHead=0;swimlaneBody=0;top=0;left=0;bottom=0;right=0;collapsible=0;dropTarget=0;fillColor=none;points=[[0,0.5],[1,0.5]];portConstraint=eastwest;strokeColor=inherit;fontSize=16;" parent="qfV262I-aldNIOLawlQ2-361" vertex="1">
          <mxGeometry y="60" width="220" height="30" as="geometry" />
        </mxCell>
        <mxCell id="qfV262I-aldNIOLawlQ2-366" value="" style="shape=partialRectangle;html=1;whiteSpace=wrap;connectable=0;fillColor=none;top=0;left=0;bottom=0;right=0;overflow=hidden;strokeColor=inherit;fontSize=16;" parent="qfV262I-aldNIOLawlQ2-365" vertex="1">
          <mxGeometry width="42" height="30" as="geometry">
            <mxRectangle width="42" height="30" as="alternateBounds" />
          </mxGeometry>
        </mxCell>
        <mxCell id="qfV262I-aldNIOLawlQ2-367" value="ApplicationTypeTitle" style="shape=partialRectangle;html=1;whiteSpace=wrap;connectable=0;fillColor=none;top=0;left=0;bottom=0;right=0;align=left;spacingLeft=6;overflow=hidden;strokeColor=inherit;fontSize=16;" parent="qfV262I-aldNIOLawlQ2-365" vertex="1">
          <mxGeometry x="42" width="178" height="30" as="geometry">
            <mxRectangle width="178" height="30" as="alternateBounds" />
          </mxGeometry>
        </mxCell>
        <mxCell id="qfV262I-aldNIOLawlQ2-368" value="" style="shape=tableRow;horizontal=0;startSize=0;swimlaneHead=0;swimlaneBody=0;top=0;left=0;bottom=0;right=0;collapsible=0;dropTarget=0;fillColor=none;points=[[0,0.5],[1,0.5]];portConstraint=eastwest;strokeColor=inherit;fontSize=16;" parent="qfV262I-aldNIOLawlQ2-361" vertex="1">
          <mxGeometry y="90" width="220" height="30" as="geometry" />
        </mxCell>
        <mxCell id="qfV262I-aldNIOLawlQ2-369" value="" style="shape=partialRectangle;html=1;whiteSpace=wrap;connectable=0;fillColor=none;top=0;left=0;bottom=0;right=0;overflow=hidden;strokeColor=inherit;fontSize=16;" parent="qfV262I-aldNIOLawlQ2-368" vertex="1">
          <mxGeometry width="42" height="30" as="geometry">
            <mxRectangle width="42" height="30" as="alternateBounds" />
          </mxGeometry>
        </mxCell>
        <mxCell id="qfV262I-aldNIOLawlQ2-370" value="ApplicationFees" style="shape=partialRectangle;html=1;whiteSpace=wrap;connectable=0;fillColor=none;top=0;left=0;bottom=0;right=0;align=left;spacingLeft=6;overflow=hidden;strokeColor=inherit;fontSize=16;" parent="qfV262I-aldNIOLawlQ2-368" vertex="1">
          <mxGeometry x="42" width="178" height="30" as="geometry">
            <mxRectangle width="178" height="30" as="alternateBounds" />
          </mxGeometry>
        </mxCell>
        <mxCell id="qfV262I-aldNIOLawlQ2-377" value="DetainedLicense" style="shape=table;startSize=30;container=1;collapsible=0;childLayout=tableLayout;fixedRows=1;rowLines=0;fontStyle=0;strokeColor=default;fontSize=16;" parent="1" vertex="1">
          <mxGeometry x="-720" y="-360" width="240" height="270" as="geometry" />
        </mxCell>
        <mxCell id="qfV262I-aldNIOLawlQ2-378" value="" style="shape=tableRow;horizontal=0;startSize=0;swimlaneHead=0;swimlaneBody=0;top=0;left=0;bottom=0;right=0;collapsible=0;dropTarget=0;fillColor=none;points=[[0,0.5],[1,0.5]];portConstraint=eastwest;strokeColor=inherit;fontSize=16;" parent="qfV262I-aldNIOLawlQ2-377" vertex="1">
          <mxGeometry y="30" width="240" height="30" as="geometry" />
        </mxCell>
        <mxCell id="qfV262I-aldNIOLawlQ2-379" value="PK" style="shape=partialRectangle;html=1;whiteSpace=wrap;connectable=0;fillColor=none;top=0;left=0;bottom=0;right=0;overflow=hidden;pointerEvents=1;strokeColor=inherit;fontSize=16;" parent="qfV262I-aldNIOLawlQ2-378" vertex="1">
          <mxGeometry width="46" height="30" as="geometry">
            <mxRectangle width="46" height="30" as="alternateBounds" />
          </mxGeometry>
        </mxCell>
        <mxCell id="qfV262I-aldNIOLawlQ2-380" value="DetainID" style="shape=partialRectangle;html=1;whiteSpace=wrap;connectable=0;fillColor=none;top=0;left=0;bottom=0;right=0;align=left;spacingLeft=6;overflow=hidden;strokeColor=inherit;fontSize=16;" parent="qfV262I-aldNIOLawlQ2-378" vertex="1">
          <mxGeometry x="46" width="194" height="30" as="geometry">
            <mxRectangle width="194" height="30" as="alternateBounds" />
          </mxGeometry>
        </mxCell>
        <mxCell id="qfV262I-aldNIOLawlQ2-381" value="" style="shape=tableRow;horizontal=0;startSize=0;swimlaneHead=0;swimlaneBody=0;top=0;left=0;bottom=0;right=0;collapsible=0;dropTarget=0;fillColor=none;points=[[0,0.5],[1,0.5]];portConstraint=eastwest;strokeColor=inherit;fontSize=16;" parent="qfV262I-aldNIOLawlQ2-377" vertex="1">
          <mxGeometry y="60" width="240" height="30" as="geometry" />
        </mxCell>
        <mxCell id="qfV262I-aldNIOLawlQ2-382" value="FK" style="shape=partialRectangle;html=1;whiteSpace=wrap;connectable=0;fillColor=none;top=0;left=0;bottom=0;right=0;overflow=hidden;strokeColor=inherit;fontSize=16;" parent="qfV262I-aldNIOLawlQ2-381" vertex="1">
          <mxGeometry width="46" height="30" as="geometry">
            <mxRectangle width="46" height="30" as="alternateBounds" />
          </mxGeometry>
        </mxCell>
        <mxCell id="qfV262I-aldNIOLawlQ2-383" value="LicenseID" style="shape=partialRectangle;html=1;whiteSpace=wrap;connectable=0;fillColor=none;top=0;left=0;bottom=0;right=0;align=left;spacingLeft=6;overflow=hidden;strokeColor=inherit;fontSize=16;" parent="qfV262I-aldNIOLawlQ2-381" vertex="1">
          <mxGeometry x="46" width="194" height="30" as="geometry">
            <mxRectangle width="194" height="30" as="alternateBounds" />
          </mxGeometry>
        </mxCell>
        <mxCell id="qfV262I-aldNIOLawlQ2-384" value="" style="shape=tableRow;horizontal=0;startSize=0;swimlaneHead=0;swimlaneBody=0;top=0;left=0;bottom=0;right=0;collapsible=0;dropTarget=0;fillColor=none;points=[[0,0.5],[1,0.5]];portConstraint=eastwest;strokeColor=inherit;fontSize=16;" parent="qfV262I-aldNIOLawlQ2-377" vertex="1">
          <mxGeometry y="90" width="240" height="30" as="geometry" />
        </mxCell>
        <mxCell id="qfV262I-aldNIOLawlQ2-385" value="" style="shape=partialRectangle;html=1;whiteSpace=wrap;connectable=0;fillColor=none;top=0;left=0;bottom=0;right=0;overflow=hidden;strokeColor=inherit;fontSize=16;" parent="qfV262I-aldNIOLawlQ2-384" vertex="1">
          <mxGeometry width="46" height="30" as="geometry">
            <mxRectangle width="46" height="30" as="alternateBounds" />
          </mxGeometry>
        </mxCell>
        <mxCell id="qfV262I-aldNIOLawlQ2-386" value="&lt;div&gt;FineFees&lt;/div&gt;" style="shape=partialRectangle;html=1;whiteSpace=wrap;connectable=0;fillColor=none;top=0;left=0;bottom=0;right=0;align=left;spacingLeft=6;overflow=hidden;strokeColor=inherit;fontSize=16;" parent="qfV262I-aldNIOLawlQ2-384" vertex="1">
          <mxGeometry x="46" width="194" height="30" as="geometry">
            <mxRectangle width="194" height="30" as="alternateBounds" />
          </mxGeometry>
        </mxCell>
        <mxCell id="qfV262I-aldNIOLawlQ2-387" value="" style="shape=tableRow;horizontal=0;startSize=0;swimlaneHead=0;swimlaneBody=0;top=0;left=0;bottom=0;right=0;collapsible=0;dropTarget=0;fillColor=none;points=[[0,0.5],[1,0.5]];portConstraint=eastwest;strokeColor=inherit;fontSize=16;" parent="qfV262I-aldNIOLawlQ2-377" vertex="1">
          <mxGeometry y="120" width="240" height="30" as="geometry" />
        </mxCell>
        <mxCell id="qfV262I-aldNIOLawlQ2-388" value="FK" style="shape=partialRectangle;html=1;whiteSpace=wrap;connectable=0;fillColor=none;top=0;left=0;bottom=0;right=0;overflow=hidden;strokeColor=inherit;fontSize=16;" parent="qfV262I-aldNIOLawlQ2-387" vertex="1">
          <mxGeometry width="46" height="30" as="geometry">
            <mxRectangle width="46" height="30" as="alternateBounds" />
          </mxGeometry>
        </mxCell>
        <mxCell id="qfV262I-aldNIOLawlQ2-389" value="CreatedByUserID" style="shape=partialRectangle;html=1;whiteSpace=wrap;connectable=0;fillColor=none;top=0;left=0;bottom=0;right=0;align=left;spacingLeft=6;overflow=hidden;strokeColor=inherit;fontSize=16;" parent="qfV262I-aldNIOLawlQ2-387" vertex="1">
          <mxGeometry x="46" width="194" height="30" as="geometry">
            <mxRectangle width="194" height="30" as="alternateBounds" />
          </mxGeometry>
        </mxCell>
        <mxCell id="qfV262I-aldNIOLawlQ2-390" value="" style="shape=tableRow;horizontal=0;startSize=0;swimlaneHead=0;swimlaneBody=0;top=0;left=0;bottom=0;right=0;collapsible=0;dropTarget=0;fillColor=none;points=[[0,0.5],[1,0.5]];portConstraint=eastwest;strokeColor=inherit;fontSize=16;" parent="qfV262I-aldNIOLawlQ2-377" vertex="1">
          <mxGeometry y="150" width="240" height="30" as="geometry" />
        </mxCell>
        <mxCell id="qfV262I-aldNIOLawlQ2-391" value="" style="shape=partialRectangle;html=1;whiteSpace=wrap;connectable=0;fillColor=none;top=0;left=0;bottom=0;right=0;overflow=hidden;strokeColor=inherit;fontSize=16;" parent="qfV262I-aldNIOLawlQ2-390" vertex="1">
          <mxGeometry width="46" height="30" as="geometry">
            <mxRectangle width="46" height="30" as="alternateBounds" />
          </mxGeometry>
        </mxCell>
        <mxCell id="qfV262I-aldNIOLawlQ2-392" value="IsReleased" style="shape=partialRectangle;html=1;whiteSpace=wrap;connectable=0;fillColor=none;top=0;left=0;bottom=0;right=0;align=left;spacingLeft=6;overflow=hidden;strokeColor=inherit;fontSize=16;" parent="qfV262I-aldNIOLawlQ2-390" vertex="1">
          <mxGeometry x="46" width="194" height="30" as="geometry">
            <mxRectangle width="194" height="30" as="alternateBounds" />
          </mxGeometry>
        </mxCell>
        <mxCell id="qfV262I-aldNIOLawlQ2-393" value="" style="shape=tableRow;horizontal=0;startSize=0;swimlaneHead=0;swimlaneBody=0;top=0;left=0;bottom=0;right=0;collapsible=0;dropTarget=0;fillColor=none;points=[[0,0.5],[1,0.5]];portConstraint=eastwest;strokeColor=inherit;fontSize=16;" parent="qfV262I-aldNIOLawlQ2-377" vertex="1">
          <mxGeometry y="180" width="240" height="30" as="geometry" />
        </mxCell>
        <mxCell id="qfV262I-aldNIOLawlQ2-394" value="" style="shape=partialRectangle;html=1;whiteSpace=wrap;connectable=0;fillColor=none;top=0;left=0;bottom=0;right=0;overflow=hidden;strokeColor=inherit;fontSize=16;" parent="qfV262I-aldNIOLawlQ2-393" vertex="1">
          <mxGeometry width="46" height="30" as="geometry">
            <mxRectangle width="46" height="30" as="alternateBounds" />
          </mxGeometry>
        </mxCell>
        <mxCell id="qfV262I-aldNIOLawlQ2-395" value="ReleaseDate" style="shape=partialRectangle;html=1;whiteSpace=wrap;connectable=0;fillColor=none;top=0;left=0;bottom=0;right=0;align=left;spacingLeft=6;overflow=hidden;strokeColor=inherit;fontSize=16;" parent="qfV262I-aldNIOLawlQ2-393" vertex="1">
          <mxGeometry x="46" width="194" height="30" as="geometry">
            <mxRectangle width="194" height="30" as="alternateBounds" />
          </mxGeometry>
        </mxCell>
        <mxCell id="qfV262I-aldNIOLawlQ2-396" value="" style="shape=tableRow;horizontal=0;startSize=0;swimlaneHead=0;swimlaneBody=0;top=0;left=0;bottom=0;right=0;collapsible=0;dropTarget=0;fillColor=none;points=[[0,0.5],[1,0.5]];portConstraint=eastwest;strokeColor=inherit;fontSize=16;" parent="qfV262I-aldNIOLawlQ2-377" vertex="1">
          <mxGeometry y="210" width="240" height="30" as="geometry" />
        </mxCell>
        <mxCell id="qfV262I-aldNIOLawlQ2-397" value="FK" style="shape=partialRectangle;html=1;whiteSpace=wrap;connectable=0;fillColor=none;top=0;left=0;bottom=0;right=0;overflow=hidden;strokeColor=inherit;fontSize=16;" parent="qfV262I-aldNIOLawlQ2-396" vertex="1">
          <mxGeometry width="46" height="30" as="geometry">
            <mxRectangle width="46" height="30" as="alternateBounds" />
          </mxGeometry>
        </mxCell>
        <mxCell id="qfV262I-aldNIOLawlQ2-398" value="ReleasedByUserID" style="shape=partialRectangle;html=1;whiteSpace=wrap;connectable=0;fillColor=none;top=0;left=0;bottom=0;right=0;align=left;spacingLeft=6;overflow=hidden;strokeColor=inherit;fontSize=16;" parent="qfV262I-aldNIOLawlQ2-396" vertex="1">
          <mxGeometry x="46" width="194" height="30" as="geometry">
            <mxRectangle width="194" height="30" as="alternateBounds" />
          </mxGeometry>
        </mxCell>
        <mxCell id="qfV262I-aldNIOLawlQ2-399" value="" style="shape=tableRow;horizontal=0;startSize=0;swimlaneHead=0;swimlaneBody=0;top=0;left=0;bottom=0;right=0;collapsible=0;dropTarget=0;fillColor=none;points=[[0,0.5],[1,0.5]];portConstraint=eastwest;strokeColor=inherit;fontSize=16;" parent="qfV262I-aldNIOLawlQ2-377" vertex="1">
          <mxGeometry y="240" width="240" height="30" as="geometry" />
        </mxCell>
        <mxCell id="qfV262I-aldNIOLawlQ2-400" value="FK" style="shape=partialRectangle;html=1;whiteSpace=wrap;connectable=0;fillColor=none;top=0;left=0;bottom=0;right=0;overflow=hidden;strokeColor=inherit;fontSize=16;" parent="qfV262I-aldNIOLawlQ2-399" vertex="1">
          <mxGeometry width="46" height="30" as="geometry">
            <mxRectangle width="46" height="30" as="alternateBounds" />
          </mxGeometry>
        </mxCell>
        <mxCell id="qfV262I-aldNIOLawlQ2-401" value="ReleasedApplicationID" style="shape=partialRectangle;html=1;whiteSpace=wrap;connectable=0;fillColor=none;top=0;left=0;bottom=0;right=0;align=left;spacingLeft=6;overflow=hidden;strokeColor=inherit;fontSize=16;" parent="qfV262I-aldNIOLawlQ2-399" vertex="1">
          <mxGeometry x="46" width="194" height="30" as="geometry">
            <mxRectangle width="194" height="30" as="alternateBounds" />
          </mxGeometry>
        </mxCell>
        <mxCell id="qfV262I-aldNIOLawlQ2-402" style="edgeStyle=orthogonalEdgeStyle;rounded=0;orthogonalLoop=1;jettySize=auto;html=1;startArrow=ERmandOne;startFill=0;endArrow=ERmandOne;endFill=0;" parent="1" source="qfV262I-aldNIOLawlQ2-33" target="qfV262I-aldNIOLawlQ2-195" edge="1">
          <mxGeometry relative="1" as="geometry" />
        </mxCell>
        <mxCell id="qfV262I-aldNIOLawlQ2-403" style="edgeStyle=orthogonalEdgeStyle;rounded=0;orthogonalLoop=1;jettySize=auto;html=1;entryX=1;entryY=0.5;entryDx=0;entryDy=0;startArrow=ERmandOne;startFill=0;endArrow=ERmandOne;endFill=0;" parent="1" source="qfV262I-aldNIOLawlQ2-192" target="qfV262I-aldNIOLawlQ2-387" edge="1">
          <mxGeometry relative="1" as="geometry">
            <Array as="points">
              <mxPoint x="100" y="-290" />
              <mxPoint x="100" y="-225" />
            </Array>
          </mxGeometry>
        </mxCell>
        <mxCell id="qfV262I-aldNIOLawlQ2-405" style="edgeStyle=orthogonalEdgeStyle;rounded=0;orthogonalLoop=1;jettySize=auto;html=1;entryX=1;entryY=0.5;entryDx=0;entryDy=0;startArrow=ERmandOne;startFill=0;endArrow=ERmandOne;endFill=0;" parent="1" source="qfV262I-aldNIOLawlQ2-192" target="qfV262I-aldNIOLawlQ2-269" edge="1">
          <mxGeometry relative="1" as="geometry">
            <Array as="points">
              <mxPoint x="650" y="-300" />
              <mxPoint x="650" y="665" />
            </Array>
          </mxGeometry>
        </mxCell>
        <mxCell id="qfV262I-aldNIOLawlQ2-406" style="edgeStyle=orthogonalEdgeStyle;rounded=0;orthogonalLoop=1;jettySize=auto;html=1;entryX=1;entryY=0.5;entryDx=0;entryDy=0;startArrow=ERmandOne;startFill=0;endArrow=ERmandOne;endFill=0;" parent="1" source="qfV262I-aldNIOLawlQ2-192" target="qfV262I-aldNIOLawlQ2-288" edge="1">
          <mxGeometry relative="1" as="geometry">
            <Array as="points">
              <mxPoint x="1000" y="-305" />
              <mxPoint x="1000" y="293" />
              <mxPoint x="900" y="293" />
              <mxPoint x="900" y="890" />
            </Array>
          </mxGeometry>
        </mxCell>
        <mxCell id="qfV262I-aldNIOLawlQ2-407" style="edgeStyle=orthogonalEdgeStyle;rounded=0;orthogonalLoop=1;jettySize=auto;html=1;entryX=1;entryY=0.5;entryDx=0;entryDy=0;" parent="1" source="qfV262I-aldNIOLawlQ2-192" target="qfV262I-aldNIOLawlQ2-163" edge="1">
          <mxGeometry relative="1" as="geometry">
            <Array as="points">
              <mxPoint x="1060" y="-305" />
              <mxPoint x="1060" y="1055" />
              <mxPoint x="490" y="1055" />
              <mxPoint x="490" y="1415" />
            </Array>
          </mxGeometry>
        </mxCell>
        <mxCell id="qfV262I-aldNIOLawlQ2-408" style="edgeStyle=orthogonalEdgeStyle;rounded=0;orthogonalLoop=1;jettySize=auto;html=1;entryX=0;entryY=0.5;entryDx=0;entryDy=0;startArrow=ERmandOne;startFill=0;endArrow=ERzeroToMany;endFill=0;" parent="1" source="qfV262I-aldNIOLawlQ2-192" target="qfV262I-aldNIOLawlQ2-358" edge="1">
          <mxGeometry relative="1" as="geometry">
            <Array as="points">
              <mxPoint x="-380" y="-295" />
              <mxPoint x="-380" y="695" />
            </Array>
          </mxGeometry>
        </mxCell>
        <mxCell id="qfV262I-aldNIOLawlQ2-409" style="edgeStyle=orthogonalEdgeStyle;rounded=0;orthogonalLoop=1;jettySize=auto;html=1;entryX=0;entryY=0.5;entryDx=0;entryDy=0;" parent="1" source="qfV262I-aldNIOLawlQ2-192" target="qfV262I-aldNIOLawlQ2-333" edge="1">
          <mxGeometry relative="1" as="geometry">
            <Array as="points">
              <mxPoint x="-280" y="-295" />
              <mxPoint x="-280" y="275" />
            </Array>
          </mxGeometry>
        </mxCell>
        <mxCell id="qfV262I-aldNIOLawlQ2-410" style="edgeStyle=orthogonalEdgeStyle;rounded=0;orthogonalLoop=1;jettySize=auto;html=1;entryX=1;entryY=0.5;entryDx=0;entryDy=0;startArrow=ERmandOne;startFill=0;endArrow=ERzeroToMany;endFill=0;" parent="1" source="qfV262I-aldNIOLawlQ2-192" target="qfV262I-aldNIOLawlQ2-301" edge="1">
          <mxGeometry relative="1" as="geometry" />
        </mxCell>
        <mxCell id="qfV262I-aldNIOLawlQ2-412" style="edgeStyle=orthogonalEdgeStyle;rounded=0;orthogonalLoop=1;jettySize=auto;html=1;entryX=1;entryY=0.5;entryDx=0;entryDy=0;startArrow=ERmandOne;startFill=0;endArrow=ERmandOne;endFill=0;" parent="1" source="qfV262I-aldNIOLawlQ2-192" target="qfV262I-aldNIOLawlQ2-396" edge="1">
          <mxGeometry relative="1" as="geometry" />
        </mxCell>
        <mxCell id="qfV262I-aldNIOLawlQ2-413" style="edgeStyle=orthogonalEdgeStyle;rounded=0;orthogonalLoop=1;jettySize=auto;html=1;entryX=0;entryY=0.5;entryDx=0;entryDy=0;startArrow=ERoneToMany;startFill=0;endArrow=ERmandOne;endFill=0;" parent="1" source="qfV262I-aldNIOLawlQ2-346" target="qfV262I-aldNIOLawlQ2-362" edge="1">
          <mxGeometry relative="1" as="geometry" />
        </mxCell>
        <mxCell id="qfV262I-aldNIOLawlQ2-414" style="edgeStyle=orthogonalEdgeStyle;rounded=0;orthogonalLoop=1;jettySize=auto;html=1;entryX=0;entryY=0.5;entryDx=0;entryDy=0;startArrow=ERzeroToMany;startFill=0;endArrow=ERmandOne;endFill=0;" parent="1" source="qfV262I-aldNIOLawlQ2-298" target="qfV262I-aldNIOLawlQ2-33" edge="1">
          <mxGeometry relative="1" as="geometry" />
        </mxCell>
        <mxCell id="qfV262I-aldNIOLawlQ2-415" style="edgeStyle=orthogonalEdgeStyle;rounded=0;orthogonalLoop=1;jettySize=auto;html=1;entryX=0;entryY=0.5;entryDx=0;entryDy=0;startArrow=ERzeroToMany;startFill=0;endArrow=ERzeroToOne;endFill=0;" parent="1" source="qfV262I-aldNIOLawlQ2-340" target="qfV262I-aldNIOLawlQ2-33" edge="1">
          <mxGeometry relative="1" as="geometry" />
        </mxCell>
        <mxCell id="qfV262I-aldNIOLawlQ2-416" style="edgeStyle=orthogonalEdgeStyle;rounded=0;orthogonalLoop=1;jettySize=auto;html=1;entryX=0;entryY=0.5;entryDx=0;entryDy=0;" parent="1" source="qfV262I-aldNIOLawlQ2-51" target="qfV262I-aldNIOLawlQ2-257" edge="1">
          <mxGeometry relative="1" as="geometry" />
        </mxCell>
        <mxCell id="qfV262I-aldNIOLawlQ2-417" style="edgeStyle=orthogonalEdgeStyle;rounded=0;orthogonalLoop=1;jettySize=auto;html=1;entryX=0;entryY=0.5;entryDx=0;entryDy=0;startArrow=ERmandOne;startFill=0;endArrow=ERmandOne;endFill=0;" parent="1" source="qfV262I-aldNIOLawlQ2-399" target="qfV262I-aldNIOLawlQ2-337" edge="1">
          <mxGeometry relative="1" as="geometry" />
        </mxCell>
        <mxCell id="qfV262I-aldNIOLawlQ2-418" style="edgeStyle=orthogonalEdgeStyle;rounded=0;orthogonalLoop=1;jettySize=auto;html=1;entryX=0;entryY=0.5;entryDx=0;entryDy=0;startArrow=ERmandOne;startFill=0;endArrow=ERmandOne;endFill=0;" parent="1" source="qfV262I-aldNIOLawlQ2-381" target="qfV262I-aldNIOLawlQ2-136" edge="1">
          <mxGeometry relative="1" as="geometry">
            <Array as="points">
              <mxPoint x="-820" y="-285" />
              <mxPoint x="-820" y="1175" />
            </Array>
          </mxGeometry>
        </mxCell>
        <mxCell id="qfV262I-aldNIOLawlQ2-419" style="edgeStyle=orthogonalEdgeStyle;rounded=0;orthogonalLoop=1;jettySize=auto;html=1;entryX=0;entryY=0.5;entryDx=0;entryDy=0;startArrow=ERzeroToMany;startFill=0;endArrow=ERmandOne;endFill=0;" parent="1" source="qfV262I-aldNIOLawlQ2-148" target="qfV262I-aldNIOLawlQ2-61" edge="1">
          <mxGeometry relative="1" as="geometry" />
        </mxCell>
        <mxCell id="qfV262I-aldNIOLawlQ2-420" style="edgeStyle=orthogonalEdgeStyle;rounded=0;orthogonalLoop=1;jettySize=auto;html=1;entryX=1;entryY=0.5;entryDx=0;entryDy=0;startArrow=ERmandOne;startFill=0;endArrow=ERmandOne;endFill=0;" parent="1" source="qfV262I-aldNIOLawlQ2-139" target="qfV262I-aldNIOLawlQ2-337" edge="1">
          <mxGeometry relative="1" as="geometry">
            <Array as="points">
              <mxPoint x="70" y="1205" />
              <mxPoint x="70" y="485" />
            </Array>
          </mxGeometry>
        </mxCell>
        <mxCell id="qfV262I-aldNIOLawlQ2-421" style="edgeStyle=orthogonalEdgeStyle;rounded=0;orthogonalLoop=1;jettySize=auto;html=1;entryX=0;entryY=0.5;entryDx=0;entryDy=0;startArrow=ERzeroToMany;startFill=0;endArrow=ERmandOne;endFill=0;" parent="1" source="qfV262I-aldNIOLawlQ2-295" target="qfV262I-aldNIOLawlQ2-142" edge="1">
          <mxGeometry relative="1" as="geometry" />
        </mxCell>
        <mxCell id="qfV262I-aldNIOLawlQ2-422" style="edgeStyle=orthogonalEdgeStyle;rounded=0;orthogonalLoop=1;jettySize=auto;html=1;entryX=1;entryY=0.5;entryDx=0;entryDy=0;startArrow=ERzeroToMany;startFill=0;endArrow=ERmandOne;endFill=0;" parent="1" source="qfV262I-aldNIOLawlQ2-276" target="qfV262I-aldNIOLawlQ2-167" edge="1">
          <mxGeometry relative="1" as="geometry" />
        </mxCell>
        <mxCell id="qfV262I-aldNIOLawlQ2-423" style="edgeStyle=orthogonalEdgeStyle;rounded=0;orthogonalLoop=1;jettySize=auto;html=1;entryX=1;entryY=0.5;entryDx=0;entryDy=0;startArrow=ERmandOne;startFill=0;endArrow=ERmandOne;endFill=0;" parent="1" source="qfV262I-aldNIOLawlQ2-279" target="qfV262I-aldNIOLawlQ2-311" edge="1">
          <mxGeometry relative="1" as="geometry">
            <Array as="points">
              <mxPoint x="210" y="800" />
              <mxPoint x="210" y="65" />
            </Array>
          </mxGeometry>
        </mxCell>
        <mxCell id="qfV262I-aldNIOLawlQ2-424" style="edgeStyle=orthogonalEdgeStyle;rounded=0;orthogonalLoop=1;jettySize=auto;html=1;entryX=0;entryY=0.5;entryDx=0;entryDy=0;startArrow=ERmandOne;startFill=0;endArrow=ERmandOne;endFill=0;" parent="1" source="qfV262I-aldNIOLawlQ2-92" target="qfV262I-aldNIOLawlQ2-273" edge="1">
          <mxGeometry relative="1" as="geometry" />
        </mxCell>
        <mxCell id="qfV262I-aldNIOLawlQ2-425" style="edgeStyle=orthogonalEdgeStyle;rounded=0;orthogonalLoop=1;jettySize=auto;html=1;entryX=1;entryY=0.5;entryDx=0;entryDy=0;startArrow=ERmandOne;startFill=0;endArrow=ERmandOne;endFill=0;" parent="1" source="qfV262I-aldNIOLawlQ2-314" target="qfV262I-aldNIOLawlQ2-337" edge="1">
          <mxGeometry relative="1" as="geometry">
            <Array as="points">
              <mxPoint x="80" y="95" />
              <mxPoint x="80" y="390" />
              <mxPoint x="-130" y="390" />
              <mxPoint x="-130" y="485" />
            </Array>
          </mxGeometry>
        </mxCell>
        <mxCell id="qfV262I-aldNIOLawlQ2-426" style="edgeStyle=orthogonalEdgeStyle;rounded=0;orthogonalLoop=1;jettySize=auto;html=1;entryX=0;entryY=0.5;entryDx=0;entryDy=0;startArrow=ERzeroToMany;startFill=0;endArrow=ERmandOne;endFill=0;" parent="1" source="qfV262I-aldNIOLawlQ2-317" target="qfV262I-aldNIOLawlQ2-295" edge="1">
          <mxGeometry relative="1" as="geometry">
            <Array as="points">
              <mxPoint x="40" y="125" />
              <mxPoint x="40" y="-150" />
              <mxPoint x="-90" y="-150" />
              <mxPoint x="-90" y="-425" />
            </Array>
          </mxGeometry>
        </mxCell>
        <mxCell id="qfV262I-aldNIOLawlQ2-427" style="edgeStyle=orthogonalEdgeStyle;rounded=0;orthogonalLoop=1;jettySize=auto;html=1;entryX=0;entryY=0.5;entryDx=0;entryDy=0;endArrow=ERmandOne;endFill=0;startArrow=ERmandOne;startFill=0;" parent="1" source="qfV262I-aldNIOLawlQ2-320" target="qfV262I-aldNIOLawlQ2-136" edge="1">
          <mxGeometry relative="1" as="geometry" />
        </mxCell>
        <mxCell id="rLBXWK_05FFJ4CiBFjJK-3" style="edgeStyle=orthogonalEdgeStyle;rounded=0;orthogonalLoop=1;jettySize=auto;html=1;entryX=0;entryY=0.5;entryDx=0;entryDy=0;startArrow=ERmandOne;startFill=0;endArrow=ERmandOne;endFill=0;" edge="1" parent="1" source="qfV262I-aldNIOLawlQ2-13" target="qfV262I-aldNIOLawlQ2-337">
          <mxGeometry relative="1" as="geometry">
            <Array as="points">
              <mxPoint x="-600" y="1375" />
              <mxPoint x="-600" y="1100" />
              <mxPoint x="-620" y="1100" />
              <mxPoint x="-620" y="485" />
            </Array>
          </mxGeometry>
        </mxCell>
        <mxCell id="rLBXWK_05FFJ4CiBFjJK-4" style="edgeStyle=orthogonalEdgeStyle;rounded=0;orthogonalLoop=1;jettySize=auto;html=1;entryX=1;entryY=0.5;entryDx=0;entryDy=0;endArrow=ERmandOne;endFill=0;startArrow=ERoneToMany;startFill=0;" edge="1" parent="1" source="qfV262I-aldNIOLawlQ2-16" target="qfV262I-aldNIOLawlQ2-61">
          <mxGeometry relative="1" as="geometry" />
        </mxCell>
      </root>
    </mxGraphModel>
  </diagram>
</mxfile>
